<?xml version="1.0" encoding="utf-8" standalone="no"?>
<!DOCTYPE svg PUBLIC "-//W3C//DTD SVG 1.1//EN"
  "http://www.w3.org/Graphics/SVG/1.1/DTD/svg11.dtd">
<!-- Created with matplotlib (http://matplotlib.org/) -->
<svg height="504pt" version="1.1" viewBox="0 0 432 504" width="432pt" xmlns="http://www.w3.org/2000/svg" xmlns:xlink="http://www.w3.org/1999/xlink">
 <defs>
  <style type="text/css">
*{stroke-linecap:butt;stroke-linejoin:round;stroke-miterlimit:100000;}
  </style>
 </defs>
 <g id="figure_1">
  <g id="patch_1">
   <path d="M 0 504 
L 432 504 
L 432 0 
L 0 0 
z
" style="fill:#ffffff;"/>
  </g>
  <g id="axes_1">
   <g id="patch_2">
    <path d="M 86.94 218.528437 
L 412.56 218.528437 
L 412.56 27.99 
L 86.94 27.99 
z
" style="fill:#ffffff;"/>
   </g>
   <g id="line2d_1">
    <path clip-path="url(#p7e0996523a)" d="M 87.684274 226.467531 
L 363.82765 226.464586 
M 134.017687 225.869612 
L 346.703237 -1 
L 346.703237 -1 
" style="fill:none;stroke:#0000ff;stroke-linecap:square;"/>
   </g>
   <g id="line2d_2">
    <path d="M 82.0557 221.386514 
L 91.8243 215.670361 
" style="fill:none;stroke:#000000;stroke-linecap:square;"/>
   </g>
   <g id="line2d_3">
    <path d="M 407.6757 221.386514 
L 417.4443 215.670361 
" style="fill:none;stroke:#000000;stroke-linecap:square;"/>
   </g>
   <g id="patch_3">
    <path d="M 86.94 218.528437 
L 86.94 27.99 
" style="fill:none;stroke:#000000;stroke-linecap:square;stroke-linejoin:miter;"/>
   </g>
   <g id="patch_4">
    <path d="M 412.56 218.528437 
L 412.56 27.99 
" style="fill:none;stroke:#000000;stroke-linecap:square;stroke-linejoin:miter;"/>
   </g>
   <g id="patch_5">
    <path d="M 86.94 27.99 
L 412.56 27.99 
" style="fill:none;stroke:#000000;stroke-linecap:square;stroke-linejoin:miter;"/>
   </g>
   <g id="matplotlib.axis_1">
    <g id="xtick_1">
     <g id="line2d_4">
      <defs>
       <path d="M 0 0 
L 0 4 
" id="m3411866ea3" style="stroke:#000000;stroke-width:0.5;"/>
      </defs>
      <g>
       <use style="stroke:#000000;stroke-width:0.5;" x="86.94" xlink:href="#m3411866ea3" y="27.99"/>
      </g>
     </g>
    </g>
    <g id="xtick_2">
     <g id="line2d_5">
      <g>
       <use style="stroke:#000000;stroke-width:0.5;" x="179.974285714" xlink:href="#m3411866ea3" y="27.99"/>
      </g>
     </g>
    </g>
    <g id="xtick_3">
     <g id="line2d_6">
      <g>
       <use style="stroke:#000000;stroke-width:0.5;" x="273.008571429" xlink:href="#m3411866ea3" y="27.99"/>
      </g>
     </g>
    </g>
    <g id="xtick_4">
     <g id="line2d_7">
      <g>
       <use style="stroke:#000000;stroke-width:0.5;" x="366.042857143" xlink:href="#m3411866ea3" y="27.99"/>
      </g>
     </g>
    </g>
   </g>
   <g id="matplotlib.axis_2">
    <g id="ytick_1">
     <g id="line2d_8">
      <defs>
       <path d="M 0 0 
L 4 0 
" id="mfaea66e18f" style="stroke:#000000;stroke-width:0.5;"/>
      </defs>
      <g>
       <use style="stroke:#000000;stroke-width:0.5;" x="86.94" xlink:href="#mfaea66e18f" y="186.77203125"/>
      </g>
     </g>
     <g id="line2d_9">
      <defs>
       <path d="M 0 0 
L -4 0 
" id="m9b5ef7a372" style="stroke:#000000;stroke-width:0.5;"/>
      </defs>
      <g>
       <use style="stroke:#000000;stroke-width:0.5;" x="412.56" xlink:href="#m9b5ef7a372" y="186.77203125"/>
      </g>
     </g>
     <g id="text_1">
      <!-- 50 -->
      <defs>
       <path d="M 10.796875 72.90625 
L 49.515625 72.90625 
L 49.515625 64.59375 
L 19.828125 64.59375 
L 19.828125 46.734375 
Q 21.96875 47.46875 24.109375 47.828125 
Q 26.265625 48.1875 28.421875 48.1875 
Q 40.625 48.1875 47.75 41.5 
Q 54.890625 34.8125 54.890625 23.390625 
Q 54.890625 11.625 47.5625 5.09375 
Q 40.234375 -1.421875 26.90625 -1.421875 
Q 22.3125 -1.421875 17.546875 -0.640625 
Q 12.796875 0.140625 7.71875 1.703125 
L 7.71875 11.625 
Q 12.109375 9.234375 16.796875 8.0625 
Q 21.484375 6.890625 26.703125 6.890625 
Q 35.15625 6.890625 40.078125 11.328125 
Q 45.015625 15.765625 45.015625 23.390625 
Q 45.015625 31 40.078125 35.4375 
Q 35.15625 39.890625 26.703125 39.890625 
Q 22.75 39.890625 18.8125 39.015625 
Q 14.890625 38.140625 10.796875 36.28125 
z
" id="BitstreamVeraSans-Roman-35"/>
       <path d="M 31.78125 66.40625 
Q 24.171875 66.40625 20.328125 58.90625 
Q 16.5 51.421875 16.5 36.375 
Q 16.5 21.390625 20.328125 13.890625 
Q 24.171875 6.390625 31.78125 6.390625 
Q 39.453125 6.390625 43.28125 13.890625 
Q 47.125 21.390625 47.125 36.375 
Q 47.125 51.421875 43.28125 58.90625 
Q 39.453125 66.40625 31.78125 66.40625 
M 31.78125 74.21875 
Q 44.046875 74.21875 50.515625 64.515625 
Q 56.984375 54.828125 56.984375 36.375 
Q 56.984375 17.96875 50.515625 8.265625 
Q 44.046875 -1.421875 31.78125 -1.421875 
Q 19.53125 -1.421875 13.0625 8.265625 
Q 6.59375 17.96875 6.59375 36.375 
Q 6.59375 54.828125 13.0625 64.515625 
Q 19.53125 74.21875 31.78125 74.21875 
" id="BitstreamVeraSans-Roman-30"/>
      </defs>
      <g transform="translate(60.035 191.73890625)scale(0.18 -0.18)">
       <use xlink:href="#BitstreamVeraSans-Roman-35"/>
       <use x="63.623046875" xlink:href="#BitstreamVeraSans-Roman-30"/>
      </g>
     </g>
    </g>
    <g id="ytick_2">
     <g id="line2d_10">
      <g>
       <use style="stroke:#000000;stroke-width:0.5;" x="86.94" xlink:href="#mfaea66e18f" y="147.076523437"/>
      </g>
     </g>
     <g id="line2d_11">
      <g>
       <use style="stroke:#000000;stroke-width:0.5;" x="412.56" xlink:href="#m9b5ef7a372" y="147.076523437"/>
      </g>
     </g>
     <g id="text_2">
      <!-- 100 -->
      <defs>
       <path d="M 12.40625 8.296875 
L 28.515625 8.296875 
L 28.515625 63.921875 
L 10.984375 60.40625 
L 10.984375 69.390625 
L 28.421875 72.90625 
L 38.28125 72.90625 
L 38.28125 8.296875 
L 54.390625 8.296875 
L 54.390625 0 
L 12.40625 0 
z
" id="BitstreamVeraSans-Roman-31"/>
      </defs>
      <g transform="translate(48.5825 152.043398438)scale(0.18 -0.18)">
       <use xlink:href="#BitstreamVeraSans-Roman-31"/>
       <use x="63.623046875" xlink:href="#BitstreamVeraSans-Roman-30"/>
       <use x="127.24609375" xlink:href="#BitstreamVeraSans-Roman-30"/>
      </g>
     </g>
    </g>
    <g id="ytick_3">
     <g id="line2d_12">
      <g>
       <use style="stroke:#000000;stroke-width:0.5;" x="86.94" xlink:href="#mfaea66e18f" y="107.381015625"/>
      </g>
     </g>
     <g id="line2d_13">
      <g>
       <use style="stroke:#000000;stroke-width:0.5;" x="412.56" xlink:href="#m9b5ef7a372" y="107.381015625"/>
      </g>
     </g>
     <g id="text_3">
      <!-- 150 -->
      <g transform="translate(48.5825 112.347890625)scale(0.18 -0.18)">
       <use xlink:href="#BitstreamVeraSans-Roman-31"/>
       <use x="63.623046875" xlink:href="#BitstreamVeraSans-Roman-35"/>
       <use x="127.24609375" xlink:href="#BitstreamVeraSans-Roman-30"/>
      </g>
     </g>
    </g>
    <g id="ytick_4">
     <g id="line2d_14">
      <g>
       <use style="stroke:#000000;stroke-width:0.5;" x="86.94" xlink:href="#mfaea66e18f" y="67.6855078125"/>
      </g>
     </g>
     <g id="line2d_15">
      <g>
       <use style="stroke:#000000;stroke-width:0.5;" x="412.56" xlink:href="#m9b5ef7a372" y="67.6855078125"/>
      </g>
     </g>
     <g id="text_4">
      <!-- 200 -->
      <defs>
       <path d="M 19.1875 8.296875 
L 53.609375 8.296875 
L 53.609375 0 
L 7.328125 0 
L 7.328125 8.296875 
Q 12.9375 14.109375 22.625 23.890625 
Q 32.328125 33.6875 34.8125 36.53125 
Q 39.546875 41.84375 41.421875 45.53125 
Q 43.3125 49.21875 43.3125 52.78125 
Q 43.3125 58.59375 39.234375 62.25 
Q 35.15625 65.921875 28.609375 65.921875 
Q 23.96875 65.921875 18.8125 64.3125 
Q 13.671875 62.703125 7.8125 59.421875 
L 7.8125 69.390625 
Q 13.765625 71.78125 18.9375 73 
Q 24.125 74.21875 28.421875 74.21875 
Q 39.75 74.21875 46.484375 68.546875 
Q 53.21875 62.890625 53.21875 53.421875 
Q 53.21875 48.921875 51.53125 44.890625 
Q 49.859375 40.875 45.40625 35.40625 
Q 44.1875 33.984375 37.640625 27.21875 
Q 31.109375 20.453125 19.1875 8.296875 
" id="BitstreamVeraSans-Roman-32"/>
      </defs>
      <g transform="translate(48.5825 72.6523828125)scale(0.18 -0.18)">
       <use xlink:href="#BitstreamVeraSans-Roman-32"/>
       <use x="63.623046875" xlink:href="#BitstreamVeraSans-Roman-30"/>
       <use x="127.24609375" xlink:href="#BitstreamVeraSans-Roman-30"/>
      </g>
     </g>
    </g>
    <g id="ytick_5">
     <g id="line2d_16">
      <g>
       <use style="stroke:#000000;stroke-width:0.5;" x="86.94" xlink:href="#mfaea66e18f" y="27.99"/>
      </g>
     </g>
     <g id="line2d_17">
      <g>
       <use style="stroke:#000000;stroke-width:0.5;" x="412.56" xlink:href="#m9b5ef7a372" y="27.99"/>
      </g>
     </g>
     <g id="text_5">
      <!-- 250 -->
      <g transform="translate(48.5825 32.956875)scale(0.18 -0.18)">
       <use xlink:href="#BitstreamVeraSans-Roman-32"/>
       <use x="63.623046875" xlink:href="#BitstreamVeraSans-Roman-35"/>
       <use x="127.24609375" xlink:href="#BitstreamVeraSans-Roman-30"/>
      </g>
     </g>
    </g>
    <g id="text_6">
     <!-- $I\;\mathrm{[\mu A]}$ -->
     <defs>
      <path d="M 3.21875 0 
L 3.21875 3.515625 
Q 12.15625 3.515625 14.203125 9.421875 
L 35.203125 70.515625 
Q 35.5 71.578125 36.8125 71.578125 
L 38.09375 71.578125 
Q 39.40625 71.578125 39.703125 70.515625 
L 61.625 6.6875 
Q 62.546875 4.59375 65.15625 4.046875 
Q 67.78125 3.515625 71.6875 3.515625 
L 71.6875 0 
L 43.796875 0 
L 43.796875 3.515625 
Q 52.09375 3.515625 52.09375 6.203125 
L 52.09375 6.6875 
L 46.6875 22.3125 
L 22.40625 22.3125 
L 17.921875 9.421875 
Q 17.828125 9.078125 17.828125 8.40625 
Q 17.828125 5.90625 20.1875 4.703125 
Q 22.5625 3.515625 25.296875 3.515625 
L 25.296875 0 
z
M 23.578125 25.78125 
L 45.515625 25.78125 
L 34.515625 57.71875 
z
" id="Cmr10-41"/>
      <path d="M 2.78125 -18.796875 
Q 2.78125 -18.21875 2.875 -18.015625 
L 17.578125 41.015625 
Q 18.015625 42.4375 19.15625 43.3125 
Q 20.3125 44.1875 21.78125 44.1875 
Q 23.046875 44.1875 23.921875 43.421875 
Q 24.8125 42.671875 24.8125 41.40625 
Q 24.8125 41.109375 24.78125 40.9375 
Q 24.75 40.765625 24.703125 40.578125 
L 18.796875 17.1875 
Q 17.828125 13.03125 17.828125 10.015625 
Q 17.828125 6.296875 19.578125 3.90625 
Q 21.34375 1.515625 24.90625 1.515625 
Q 32.171875 1.515625 37.703125 10.59375 
Q 37.75 10.6875 37.765625 10.734375 
Q 37.796875 10.796875 37.796875 10.890625 
L 45.015625 39.890625 
Q 45.359375 41.21875 46.578125 42.15625 
Q 47.796875 43.109375 49.21875 43.109375 
Q 50.390625 43.109375 51.296875 42.328125 
Q 52.203125 41.546875 52.203125 40.28125 
Q 52.203125 39.703125 52.09375 39.5 
L 44.921875 10.6875 
Q 44.1875 7.859375 44.1875 5.8125 
Q 44.1875 1.515625 47.125 1.515625 
Q 50.25 1.515625 51.828125 5.375 
Q 53.421875 9.234375 54.59375 14.703125 
Q 54.78125 15.28125 55.421875 15.28125 
L 56.59375 15.28125 
Q 56.984375 15.28125 57.25 14.96875 
Q 57.515625 14.65625 57.515625 14.3125 
Q 55.765625 7.328125 53.6875 3.09375 
Q 51.609375 -1.125 46.921875 -1.125 
Q 43.609375 -1.125 41.046875 0.78125 
Q 38.484375 2.6875 37.703125 5.90625 
Q 35.203125 2.78125 31.859375 0.828125 
Q 28.515625 -1.125 24.8125 -1.125 
Q 18.5625 -1.125 14.984375 1.8125 
L 9.90625 -18.40625 
Q 9.625 -19.828125 8.453125 -20.703125 
Q 7.28125 -21.578125 5.8125 -21.578125 
Q 4.59375 -21.578125 3.6875 -20.8125 
Q 2.78125 -20.0625 2.78125 -18.796875 
" id="Cmmi10-b9"/>
      <path d="M 11.8125 -25 
L 11.8125 75 
L 25.484375 75 
L 25.484375 71 
L 15.828125 71 
L 15.828125 -21 
L 25.484375 -21 
L 25.484375 -25 
z
" id="Cmr10-5b"/>
      <path d="M 2.203125 -25 
L 2.203125 -21 
L 11.921875 -21 
L 11.921875 71 
L 2.203125 71 
L 2.203125 75 
L 15.921875 75 
L 15.921875 -25 
z
" id="Cmr10-5d"/>
      <path d="M 4.203125 0 
Q 3.21875 0 3.21875 1.3125 
Q 3.609375 3.515625 4.5 3.515625 
Q 10.40625 3.515625 12.5 3.90625 
Q 14.796875 4.4375 15.375 6.890625 
L 29.109375 61.8125 
Q 29.296875 62.796875 29.296875 63.09375 
Q 29.296875 63.71875 28.96875 63.984375 
Q 28.65625 64.265625 27.984375 64.40625 
Q 25.984375 64.796875 20.40625 64.796875 
Q 19.390625 64.796875 19.390625 66.109375 
Q 19.734375 67.390625 19.921875 67.84375 
Q 20.125 68.3125 21.09375 68.3125 
L 49.03125 68.3125 
Q 50 68.3125 50 67 
Q 49.953125 66.75 49.796875 66.15625 
Q 49.65625 65.578125 49.40625 65.1875 
Q 49.171875 64.796875 48.6875 64.796875 
Q 42.828125 64.796875 40.578125 64.40625 
Q 38.375 63.875 37.796875 61.375 
L 24.125 6.5 
Q 23.875 5.28125 23.875 5.171875 
Q 23.875 4.9375 23.953125 4.71875 
Q 24.03125 4.5 24.25 4.328125 
Q 24.46875 4.15625 24.6875 4.078125 
Q 24.90625 4 25.203125 3.90625 
Q 27.09375 3.515625 32.8125 3.515625 
Q 33.796875 3.515625 33.796875 2.203125 
Q 33.453125 0.78125 33.25 0.390625 
Q 33.0625 0 32.078125 0 
z
" id="Cmmi10-49"/>
     </defs>
     <g transform="translate(38.5825 149.15921875)rotate(-90.0)scale(0.2 -0.2)">
      <use xlink:href="#Cmmi10-49"/>
      <use transform="translate(68.283615234375 0.0)" xlink:href="#Cmr10-5b"/>
      <use transform="translate(95.969162109375 0.0)" xlink:href="#Cmmi10-b9"/>
      <use transform="translate(156.17424023437502 0.0)" xlink:href="#Cmr10-41"/>
      <use transform="translate(231.17424023437502 0.0)" xlink:href="#Cmr10-5d"/>
     </g>
    </g>
   </g>
  </g>
  <g id="axes_2">
   <g id="patch_6">
    <path d="M 86.94 437.056875 
L 412.56 437.056875 
L 412.56 246.518438 
L 86.94 246.518438 
z
" style="fill:#ffffff;"/>
   </g>
   <g id="line2d_18">
    <path clip-path="url(#p4a3426adad)" d="M 87.684274 436.866337 
L 363.82765 366.172067 
M 134.017687 -13913.193431 
" style="fill:none;stroke:#0000ff;stroke-linecap:square;"/>
   </g>
   <g id="line2d_19">
    <path d="M 82.0557 249.376514 
L 91.8243 243.660361 
" style="fill:none;stroke:#000000;stroke-linecap:square;"/>
   </g>
   <g id="line2d_20">
    <path d="M 407.6757 249.376514 
L 417.4443 243.660361 
" style="fill:none;stroke:#000000;stroke-linecap:square;"/>
   </g>
   <g id="patch_7">
    <path d="M 86.94 437.056875 
L 86.94 246.518437 
" style="fill:none;stroke:#000000;stroke-linecap:square;stroke-linejoin:miter;"/>
   </g>
   <g id="patch_8">
    <path d="M 412.56 437.056875 
L 412.56 246.518437 
" style="fill:none;stroke:#000000;stroke-linecap:square;stroke-linejoin:miter;"/>
   </g>
   <g id="patch_9">
    <path d="M 86.94 437.056875 
L 412.56 437.056875 
" style="fill:none;stroke:#000000;stroke-linecap:square;stroke-linejoin:miter;"/>
   </g>
   <g id="matplotlib.axis_3">
    <g id="xtick_5">
     <g id="line2d_21">
      <defs>
       <path d="M 0 0 
L 0 -4 
" id="mc4450430fb" style="stroke:#000000;stroke-width:0.5;"/>
      </defs>
      <g>
       <use style="stroke:#000000;stroke-width:0.5;" x="86.94" xlink:href="#mc4450430fb" y="437.056875"/>
      </g>
     </g>
     <g id="text_7">
      <!-- 0.0 -->
      <defs>
       <path d="M 10.6875 12.40625 
L 21 12.40625 
L 21 0 
L 10.6875 0 
z
" id="BitstreamVeraSans-Roman-2e"/>
      </defs>
      <g transform="translate(72.6271875 454.7340625)scale(0.18 -0.18)">
       <use xlink:href="#BitstreamVeraSans-Roman-30"/>
       <use x="63.623046875" xlink:href="#BitstreamVeraSans-Roman-2e"/>
       <use x="95.41015625" xlink:href="#BitstreamVeraSans-Roman-30"/>
      </g>
     </g>
    </g>
    <g id="xtick_6">
     <g id="line2d_22">
      <g>
       <use style="stroke:#000000;stroke-width:0.5;" x="179.974285714" xlink:href="#mc4450430fb" y="437.056875"/>
      </g>
     </g>
     <g id="text_8">
      <!-- 0.1 -->
      <g transform="translate(165.661473214 454.7340625)scale(0.18 -0.18)">
       <use xlink:href="#BitstreamVeraSans-Roman-30"/>
       <use x="63.623046875" xlink:href="#BitstreamVeraSans-Roman-2e"/>
       <use x="95.41015625" xlink:href="#BitstreamVeraSans-Roman-31"/>
      </g>
     </g>
    </g>
    <g id="xtick_7">
     <g id="line2d_23">
      <g>
       <use style="stroke:#000000;stroke-width:0.5;" x="273.008571429" xlink:href="#mc4450430fb" y="437.056875"/>
      </g>
     </g>
     <g id="text_9">
      <!-- 0.2 -->
      <g transform="translate(258.695758929 454.7340625)scale(0.18 -0.18)">
       <use xlink:href="#BitstreamVeraSans-Roman-30"/>
       <use x="63.623046875" xlink:href="#BitstreamVeraSans-Roman-2e"/>
       <use x="95.41015625" xlink:href="#BitstreamVeraSans-Roman-32"/>
      </g>
     </g>
    </g>
    <g id="xtick_8">
     <g id="line2d_24">
      <g>
       <use style="stroke:#000000;stroke-width:0.5;" x="366.042857143" xlink:href="#mc4450430fb" y="437.056875"/>
      </g>
     </g>
     <g id="text_10">
      <!-- 0.3 -->
      <defs>
       <path d="M 40.578125 39.3125 
Q 47.65625 37.796875 51.625 33 
Q 55.609375 28.21875 55.609375 21.1875 
Q 55.609375 10.40625 48.1875 4.484375 
Q 40.765625 -1.421875 27.09375 -1.421875 
Q 22.515625 -1.421875 17.65625 -0.515625 
Q 12.796875 0.390625 7.625 2.203125 
L 7.625 11.71875 
Q 11.71875 9.328125 16.59375 8.109375 
Q 21.484375 6.890625 26.8125 6.890625 
Q 36.078125 6.890625 40.9375 10.546875 
Q 45.796875 14.203125 45.796875 21.1875 
Q 45.796875 27.640625 41.28125 31.265625 
Q 36.765625 34.90625 28.71875 34.90625 
L 20.21875 34.90625 
L 20.21875 43.015625 
L 29.109375 43.015625 
Q 36.375 43.015625 40.234375 45.921875 
Q 44.09375 48.828125 44.09375 54.296875 
Q 44.09375 59.90625 40.109375 62.90625 
Q 36.140625 65.921875 28.71875 65.921875 
Q 24.65625 65.921875 20.015625 65.03125 
Q 15.375 64.15625 9.8125 62.3125 
L 9.8125 71.09375 
Q 15.4375 72.65625 20.34375 73.4375 
Q 25.25 74.21875 29.59375 74.21875 
Q 40.828125 74.21875 47.359375 69.109375 
Q 53.90625 64.015625 53.90625 55.328125 
Q 53.90625 49.265625 50.4375 45.09375 
Q 46.96875 40.921875 40.578125 39.3125 
" id="BitstreamVeraSans-Roman-33"/>
      </defs>
      <g transform="translate(351.730044643 454.7340625)scale(0.18 -0.18)">
       <use xlink:href="#BitstreamVeraSans-Roman-30"/>
       <use x="63.623046875" xlink:href="#BitstreamVeraSans-Roman-2e"/>
       <use x="95.41015625" xlink:href="#BitstreamVeraSans-Roman-33"/>
      </g>
     </g>
    </g>
    <g id="text_11">
     <!-- $V\;\mathrm{[V]}$ -->
     <defs>
      <path d="M 35.203125 -1.125 
L 11.625 61.625 
Q 10.75 63.71875 8.25 64.25 
Q 5.765625 64.796875 1.90625 64.796875 
L 1.90625 68.3125 
L 29.390625 68.3125 
L 29.390625 64.796875 
Q 21.09375 64.796875 21.09375 62.203125 
Q 21.140625 62.0625 21.15625 61.9375 
Q 21.1875 61.8125 21.1875 61.625 
L 40.375 10.59375 
L 58.5 58.890625 
Q 58.6875 59.28125 58.6875 60.109375 
Q 58.6875 62.546875 56.4375 63.671875 
Q 54.203125 64.796875 51.421875 64.796875 
L 51.421875 68.3125 
L 73 68.3125 
L 73 64.796875 
Q 69.234375 64.796875 66.375 63.40625 
Q 63.53125 62.015625 62.3125 58.890625 
L 39.703125 -1.125 
Q 39.40625 -2.203125 38.09375 -2.203125 
L 36.8125 -2.203125 
Q 35.5 -2.203125 35.203125 -1.125 
" id="Cmr10-56"/>
      <path d="M 22.015625 -1.125 
L 14.015625 62.59375 
Q 13.28125 64.796875 6.5 64.796875 
Q 5.515625 64.796875 5.515625 66.109375 
Q 5.71875 67.1875 6 67.75 
Q 6.296875 68.3125 7.171875 68.3125 
L 31.59375 68.3125 
Q 32.125 68.3125 32.375 67.921875 
Q 32.625 67.53125 32.625 67 
Q 32.234375 64.796875 31.296875 64.796875 
Q 23.484375 64.796875 23 62.109375 
L 29.59375 9.8125 
L 60.40625 58.984375 
Q 61.28125 60.640625 61.28125 61.625 
Q 61.28125 63.375 59.6875 64.078125 
Q 58.109375 64.796875 56 64.796875 
Q 54.984375 64.796875 54.984375 66.109375 
Q 55.171875 66.890625 55.3125 67.328125 
Q 55.46875 67.78125 55.765625 68.046875 
Q 56.0625 68.3125 56.6875 68.3125 
L 75.984375 68.3125 
Q 76.90625 68.3125 76.90625 67 
Q 76.515625 64.796875 75.59375 64.796875 
Q 68.0625 64.796875 63.8125 58.203125 
Q 63.625 58.015625 63.484375 58.015625 
L 26.609375 -1.125 
Q 25.875 -2.203125 24.703125 -2.203125 
L 23.296875 -2.203125 
Q 22.171875 -2.203125 22.015625 -1.125 
" id="Cmmi10-56"/>
     </defs>
     <g transform="translate(230.49 476.9775)scale(0.18 -0.18)">
      <use xlink:href="#Cmmi10-56"/>
      <use transform="translate(82.687912109375 0.0)" xlink:href="#Cmr10-5b"/>
      <use transform="translate(110.373458984375 0.0)" xlink:href="#Cmr10-56"/>
      <use transform="translate(185.37345898437502 0.0)" xlink:href="#Cmr10-5d"/>
     </g>
    </g>
   </g>
   <g id="matplotlib.axis_4">
    <g id="ytick_6">
     <g id="line2d_25">
      <g>
       <use style="stroke:#000000;stroke-width:0.5;" x="86.94" xlink:href="#mfaea66e18f" y="437.056875"/>
      </g>
     </g>
     <g id="line2d_26">
      <g>
       <use style="stroke:#000000;stroke-width:0.5;" x="412.56" xlink:href="#m9b5ef7a372" y="437.056875"/>
      </g>
     </g>
     <g id="text_12">
      <!-- 0 -->
      <g transform="translate(71.4875 442.02375)scale(0.18 -0.18)">
       <use xlink:href="#BitstreamVeraSans-Roman-30"/>
      </g>
     </g>
    </g>
    <g id="ytick_7">
     <g id="line2d_27">
      <g>
       <use style="stroke:#000000;stroke-width:0.5;" x="86.94" xlink:href="#mfaea66e18f" y="398.9491875"/>
      </g>
     </g>
     <g id="line2d_28">
      <g>
       <use style="stroke:#000000;stroke-width:0.5;" x="412.56" xlink:href="#m9b5ef7a372" y="398.9491875"/>
      </g>
     </g>
     <g id="text_13">
      <!-- 2 -->
      <g transform="translate(71.4875 403.9160625)scale(0.18 -0.18)">
       <use xlink:href="#BitstreamVeraSans-Roman-32"/>
      </g>
     </g>
    </g>
    <g id="ytick_8">
     <g id="line2d_29">
      <g>
       <use style="stroke:#000000;stroke-width:0.5;" x="86.94" xlink:href="#mfaea66e18f" y="360.8415"/>
      </g>
     </g>
     <g id="line2d_30">
      <g>
       <use style="stroke:#000000;stroke-width:0.5;" x="412.56" xlink:href="#m9b5ef7a372" y="360.8415"/>
      </g>
     </g>
     <g id="text_14">
      <!-- 4 -->
      <defs>
       <path d="M 37.796875 64.3125 
L 12.890625 25.390625 
L 37.796875 25.390625 
z
M 35.203125 72.90625 
L 47.609375 72.90625 
L 47.609375 25.390625 
L 58.015625 25.390625 
L 58.015625 17.1875 
L 47.609375 17.1875 
L 47.609375 0 
L 37.796875 0 
L 37.796875 17.1875 
L 4.890625 17.1875 
L 4.890625 26.703125 
z
" id="BitstreamVeraSans-Roman-34"/>
      </defs>
      <g transform="translate(71.4875 365.808375)scale(0.18 -0.18)">
       <use xlink:href="#BitstreamVeraSans-Roman-34"/>
      </g>
     </g>
    </g>
    <g id="ytick_9">
     <g id="line2d_31">
      <g>
       <use style="stroke:#000000;stroke-width:0.5;" x="86.94" xlink:href="#mfaea66e18f" y="322.7338125"/>
      </g>
     </g>
     <g id="line2d_32">
      <g>
       <use style="stroke:#000000;stroke-width:0.5;" x="412.56" xlink:href="#m9b5ef7a372" y="322.7338125"/>
      </g>
     </g>
     <g id="text_15">
      <!-- 6 -->
      <defs>
       <path d="M 33.015625 40.375 
Q 26.375 40.375 22.484375 35.828125 
Q 18.609375 31.296875 18.609375 23.390625 
Q 18.609375 15.53125 22.484375 10.953125 
Q 26.375 6.390625 33.015625 6.390625 
Q 39.65625 6.390625 43.53125 10.953125 
Q 47.40625 15.53125 47.40625 23.390625 
Q 47.40625 31.296875 43.53125 35.828125 
Q 39.65625 40.375 33.015625 40.375 
M 52.59375 71.296875 
L 52.59375 62.3125 
Q 48.875 64.0625 45.09375 64.984375 
Q 41.3125 65.921875 37.59375 65.921875 
Q 27.828125 65.921875 22.671875 59.328125 
Q 17.53125 52.734375 16.796875 39.40625 
Q 19.671875 43.65625 24.015625 45.921875 
Q 28.375 48.1875 33.59375 48.1875 
Q 44.578125 48.1875 50.953125 41.515625 
Q 57.328125 34.859375 57.328125 23.390625 
Q 57.328125 12.15625 50.6875 5.359375 
Q 44.046875 -1.421875 33.015625 -1.421875 
Q 20.359375 -1.421875 13.671875 8.265625 
Q 6.984375 17.96875 6.984375 36.375 
Q 6.984375 53.65625 15.1875 63.9375 
Q 23.390625 74.21875 37.203125 74.21875 
Q 40.921875 74.21875 44.703125 73.484375 
Q 48.484375 72.75 52.59375 71.296875 
" id="BitstreamVeraSans-Roman-36"/>
      </defs>
      <g transform="translate(71.4875 327.7006875)scale(0.18 -0.18)">
       <use xlink:href="#BitstreamVeraSans-Roman-36"/>
      </g>
     </g>
    </g>
    <g id="ytick_10">
     <g id="line2d_33">
      <g>
       <use style="stroke:#000000;stroke-width:0.5;" x="86.94" xlink:href="#mfaea66e18f" y="284.626125"/>
      </g>
     </g>
     <g id="line2d_34">
      <g>
       <use style="stroke:#000000;stroke-width:0.5;" x="412.56" xlink:href="#m9b5ef7a372" y="284.626125"/>
      </g>
     </g>
     <g id="text_16">
      <!-- 8 -->
      <defs>
       <path d="M 31.78125 34.625 
Q 24.75 34.625 20.71875 30.859375 
Q 16.703125 27.09375 16.703125 20.515625 
Q 16.703125 13.921875 20.71875 10.15625 
Q 24.75 6.390625 31.78125 6.390625 
Q 38.8125 6.390625 42.859375 10.171875 
Q 46.921875 13.96875 46.921875 20.515625 
Q 46.921875 27.09375 42.890625 30.859375 
Q 38.875 34.625 31.78125 34.625 
M 21.921875 38.8125 
Q 15.578125 40.375 12.03125 44.71875 
Q 8.5 49.078125 8.5 55.328125 
Q 8.5 64.0625 14.71875 69.140625 
Q 20.953125 74.21875 31.78125 74.21875 
Q 42.671875 74.21875 48.875 69.140625 
Q 55.078125 64.0625 55.078125 55.328125 
Q 55.078125 49.078125 51.53125 44.71875 
Q 48 40.375 41.703125 38.8125 
Q 48.828125 37.15625 52.796875 32.3125 
Q 56.78125 27.484375 56.78125 20.515625 
Q 56.78125 9.90625 50.3125 4.234375 
Q 43.84375 -1.421875 31.78125 -1.421875 
Q 19.734375 -1.421875 13.25 4.234375 
Q 6.78125 9.90625 6.78125 20.515625 
Q 6.78125 27.484375 10.78125 32.3125 
Q 14.796875 37.15625 21.921875 38.8125 
M 18.3125 54.390625 
Q 18.3125 48.734375 21.84375 45.5625 
Q 25.390625 42.390625 31.78125 42.390625 
Q 38.140625 42.390625 41.71875 45.5625 
Q 45.3125 48.734375 45.3125 54.390625 
Q 45.3125 60.0625 41.71875 63.234375 
Q 38.140625 66.40625 31.78125 66.40625 
Q 25.390625 66.40625 21.84375 63.234375 
Q 18.3125 60.0625 18.3125 54.390625 
" id="BitstreamVeraSans-Roman-38"/>
      </defs>
      <g transform="translate(71.4875 289.593)scale(0.18 -0.18)">
       <use xlink:href="#BitstreamVeraSans-Roman-38"/>
      </g>
     </g>
    </g>
    <g id="ytick_11">
     <g id="line2d_35">
      <g>
       <use style="stroke:#000000;stroke-width:0.5;" x="86.94" xlink:href="#mfaea66e18f" y="246.5184375"/>
      </g>
     </g>
     <g id="line2d_36">
      <g>
       <use style="stroke:#000000;stroke-width:0.5;" x="412.56" xlink:href="#m9b5ef7a372" y="246.5184375"/>
      </g>
     </g>
     <g id="text_17">
      <!-- 10 -->
      <g transform="translate(60.035 251.4853125)scale(0.18 -0.18)">
       <use xlink:href="#BitstreamVeraSans-Roman-31"/>
       <use x="63.623046875" xlink:href="#BitstreamVeraSans-Roman-30"/>
      </g>
     </g>
    </g>
    <g id="text_18">
     <!-- $I\;\mathrm{[nA]}$ -->
     <defs>
      <path d="M 2.984375 0 
L 2.984375 3.515625 
Q 6.390625 3.515625 8.59375 4.046875 
Q 10.796875 4.59375 10.796875 6.6875 
L 10.796875 33.984375 
Q 10.796875 36.671875 9.984375 37.859375 
Q 9.1875 39.0625 7.671875 39.328125 
Q 6.15625 39.59375 2.984375 39.59375 
L 2.984375 43.109375 
L 17.484375 44.1875 
L 17.484375 34.421875 
Q 19.484375 38.71875 23.40625 41.453125 
Q 27.34375 44.1875 31.984375 44.1875 
Q 38.921875 44.1875 42.40625 40.859375 
Q 45.90625 37.546875 45.90625 30.71875 
L 45.90625 6.6875 
Q 45.90625 4.59375 48.09375 4.046875 
Q 50.296875 3.515625 53.71875 3.515625 
L 53.71875 0 
L 30.8125 0 
L 30.8125 3.515625 
Q 34.234375 3.515625 36.421875 4.046875 
Q 38.625 4.59375 38.625 6.6875 
L 38.625 30.421875 
Q 38.625 35.296875 37.203125 38.453125 
Q 35.796875 41.609375 31.390625 41.609375 
Q 25.59375 41.609375 21.84375 36.96875 
Q 18.109375 32.328125 18.109375 26.421875 
L 18.109375 6.6875 
Q 18.109375 4.59375 20.3125 4.046875 
Q 22.515625 3.515625 25.875 3.515625 
L 25.875 0 
z
" id="Cmr10-6e"/>
     </defs>
     <g transform="translate(50.035 367.28765625)rotate(-90.0)scale(0.2 -0.2)">
      <use xlink:href="#Cmmi10-49"/>
      <use transform="translate(68.283615234375 0.0)" xlink:href="#Cmr10-5b"/>
      <use transform="translate(95.969162109375 0.0)" xlink:href="#Cmr10-6e"/>
      <use transform="translate(151.48674023437502 0.0)" xlink:href="#Cmr10-41"/>
      <use transform="translate(226.48674023437502 0.0)" xlink:href="#Cmr10-5d"/>
     </g>
    </g>
   </g>
  </g>
  <g id="axes_3">
   <g id="patch_10">
    <path d="M 259.2 302.4 
L 367.2 302.4 
L 367.2 176.4 
L 259.2 176.4 
z
" style="fill:#ffffff;"/>
   </g>
   <g id="line2d_37">
    <path clip-path="url(#pb57e87c755)" d="M 259.446857 302.4 
L 259.755646 296.85045 
L 260.184116 292.940541 
L 260.731928 289.913514 
L 261.415127 287.390991 
L 262.230643 285.246847 
L 263.196271 283.354955 
L 264.278775 281.715315 
L 265.536583 280.201802 
L 266.961456 278.814414 
L 268.706733 277.427027 
L 270.631714 276.165766 
L 272.946478 274.904505 
L 275.729949 273.643243 
L 279.077035 272.381982 
L 283.101859 271.120721 
L 287.941654 269.859459 
L 293.761441 268.598198 
L 300.759654 267.336937 
L 309.174908 266.075676 
L 319.294134 264.814414 
L 331.462364 263.553153 
L 346.094491 262.291892 
L 351.0367 261.913514 
M 274.81449 225.589189 
L 275.096008 219.282883 
L 275.48756 215.120721 
L 275.990604 211.967568 
L 276.634685 209.318919 
L 277.373252 207.174775 
L 278.247765 205.282883 
L 279.313727 203.517117 
L 280.47405 202.003604 
L 281.921739 200.49009 
L 283.561714 199.102703 
L 285.570461 197.715315 
L 287.786043 196.454054 
L 290.450248 195.192793 
L 293.653918 193.931532 
L 297.506287 192.67027 
L 302.138708 191.409009 
L 307.709129 190.147748 
L 314.407484 188.886486 
L 322.462162 187.625225 
L 332.147802 186.363964 
L 343.794649 185.102703 
L 357.799821 183.841441 
L 374.640846 182.58018 
L 394.891946 181.318919 
L 419.243613 180.057658 
L 433 179.436188 
L 433 179.436188 
" style="fill:none;stroke:#0000ff;stroke-linecap:square;"/>
   </g>
   <g id="patch_11">
    <path d="M 259.2 302.4 
L 259.2 176.4 
" style="fill:none;stroke:#000000;stroke-linecap:square;stroke-linejoin:miter;"/>
   </g>
   <g id="patch_12">
    <path d="M 367.2 302.4 
L 367.2 176.4 
" style="fill:none;stroke:#000000;stroke-linecap:square;stroke-linejoin:miter;"/>
   </g>
   <g id="patch_13">
    <path d="M 259.2 176.4 
L 367.2 176.4 
" style="fill:none;stroke:#000000;stroke-linecap:square;stroke-linejoin:miter;"/>
   </g>
   <g id="patch_14">
    <path d="M 259.2 302.4 
L 367.2 302.4 
" style="fill:none;stroke:#000000;stroke-linecap:square;stroke-linejoin:miter;"/>
   </g>
   <g id="matplotlib.axis_5">
    <g id="xtick_9">
     <g id="line2d_38">
      <g>
       <use style="stroke:#000000;stroke-width:0.5;" x="259.2" xlink:href="#mc4450430fb" y="302.4"/>
      </g>
     </g>
     <g id="line2d_39">
      <g>
       <use style="stroke:#000000;stroke-width:0.5;" x="259.2" xlink:href="#m3411866ea3" y="176.4"/>
      </g>
     </g>
     <g id="text_19">
      <!-- 0.0 -->
      <g transform="translate(244.8871875 320.0771875)scale(0.18 -0.18)">
       <use xlink:href="#BitstreamVeraSans-Roman-30"/>
       <use x="63.623046875" xlink:href="#BitstreamVeraSans-Roman-2e"/>
       <use x="95.41015625" xlink:href="#BitstreamVeraSans-Roman-30"/>
      </g>
     </g>
    </g>
    <g id="xtick_10">
     <g id="line2d_40">
      <g>
       <use style="stroke:#000000;stroke-width:0.5;" x="351.771428571" xlink:href="#mc4450430fb" y="302.4"/>
      </g>
     </g>
     <g id="line2d_41">
      <g>
       <use style="stroke:#000000;stroke-width:0.5;" x="351.771428571" xlink:href="#m3411866ea3" y="176.4"/>
      </g>
     </g>
     <g id="text_20">
      <!-- 0.3 -->
      <g transform="translate(337.458616071 320.0771875)scale(0.18 -0.18)">
       <use xlink:href="#BitstreamVeraSans-Roman-30"/>
       <use x="63.623046875" xlink:href="#BitstreamVeraSans-Roman-2e"/>
       <use x="95.41015625" xlink:href="#BitstreamVeraSans-Roman-33"/>
      </g>
     </g>
    </g>
   </g>
   <g id="matplotlib.axis_6">
    <g id="ytick_12">
     <g id="line2d_42">
      <g>
       <use style="stroke:#000000;stroke-width:0.5;" x="259.2" xlink:href="#mfaea66e18f" y="270.9"/>
      </g>
     </g>
     <g id="line2d_43">
      <g>
       <use style="stroke:#000000;stroke-width:0.5;" x="367.2" xlink:href="#m9b5ef7a372" y="270.9"/>
      </g>
     </g>
     <g id="text_21">
      <!-- $\mathdefault{10^{-9}}$ -->
      <defs>
       <path d="M 10.984375 1.515625 
L 10.984375 10.5 
Q 14.703125 8.734375 18.5 7.8125 
Q 22.3125 6.890625 25.984375 6.890625 
Q 35.75 6.890625 40.890625 13.453125 
Q 46.046875 20.015625 46.78125 33.40625 
Q 43.953125 29.203125 39.59375 26.953125 
Q 35.25 24.703125 29.984375 24.703125 
Q 19.046875 24.703125 12.671875 31.3125 
Q 6.296875 37.9375 6.296875 49.421875 
Q 6.296875 60.640625 12.9375 67.421875 
Q 19.578125 74.21875 30.609375 74.21875 
Q 43.265625 74.21875 49.921875 64.515625 
Q 56.59375 54.828125 56.59375 36.375 
Q 56.59375 19.140625 48.40625 8.859375 
Q 40.234375 -1.421875 26.421875 -1.421875 
Q 22.703125 -1.421875 18.890625 -0.6875 
Q 15.09375 0.046875 10.984375 1.515625 
M 30.609375 32.421875 
Q 37.25 32.421875 41.125 36.953125 
Q 45.015625 41.5 45.015625 49.421875 
Q 45.015625 57.28125 41.125 61.84375 
Q 37.25 66.40625 30.609375 66.40625 
Q 23.96875 66.40625 20.09375 61.84375 
Q 16.21875 57.28125 16.21875 49.421875 
Q 16.21875 41.5 20.09375 36.953125 
Q 23.96875 32.421875 30.609375 32.421875 
" id="BitstreamVeraSans-Roman-39"/>
       <path d="M 4.890625 31.390625 
L 31.203125 31.390625 
L 31.203125 23.390625 
L 4.890625 23.390625 
z
" id="BitstreamVeraSans-Roman-2d"/>
      </defs>
      <g transform="translate(217.22 276.3365625)scale(0.18 -0.18)">
       <use transform="translate(0.0 0.796875)" xlink:href="#BitstreamVeraSans-Roman-31"/>
       <use transform="translate(63.623046875 0.796875)" xlink:href="#BitstreamVeraSans-Roman-30"/>
       <use transform="translate(132.75859375 48.046875)scale(0.7)" xlink:href="#BitstreamVeraSans-Roman-2d"/>
       <use transform="translate(158.0173828125 48.046875)scale(0.7)" xlink:href="#BitstreamVeraSans-Roman-39"/>
      </g>
     </g>
    </g>
    <g id="ytick_13">
     <g id="line2d_44">
      <g>
       <use style="stroke:#000000;stroke-width:0.5;" x="259.2" xlink:href="#mfaea66e18f" y="239.4"/>
      </g>
     </g>
     <g id="line2d_45">
      <g>
       <use style="stroke:#000000;stroke-width:0.5;" x="367.2" xlink:href="#m9b5ef7a372" y="239.4"/>
      </g>
     </g>
     <g id="text_22">
      <!-- $\mathdefault{10^{-7}}$ -->
      <defs>
       <path d="M 8.203125 72.90625 
L 55.078125 72.90625 
L 55.078125 68.703125 
L 28.609375 0 
L 18.3125 0 
L 43.21875 64.59375 
L 8.203125 64.59375 
z
" id="BitstreamVeraSans-Roman-37"/>
      </defs>
      <g transform="translate(217.22 244.7465625)scale(0.18 -0.18)">
       <use transform="translate(0.0 0.7156250000000028)" xlink:href="#BitstreamVeraSans-Roman-31"/>
       <use transform="translate(63.623046875 0.7156250000000028)" xlink:href="#BitstreamVeraSans-Roman-30"/>
       <use transform="translate(132.75859375 47.965625)scale(0.7)" xlink:href="#BitstreamVeraSans-Roman-2d"/>
       <use transform="translate(158.0173828125 47.965625)scale(0.7)" xlink:href="#BitstreamVeraSans-Roman-37"/>
      </g>
     </g>
    </g>
    <g id="ytick_14">
     <g id="line2d_46">
      <g>
       <use style="stroke:#000000;stroke-width:0.5;" x="259.2" xlink:href="#mfaea66e18f" y="207.9"/>
      </g>
     </g>
     <g id="line2d_47">
      <g>
       <use style="stroke:#000000;stroke-width:0.5;" x="367.2" xlink:href="#m9b5ef7a372" y="207.9"/>
      </g>
     </g>
     <g id="text_23">
      <!-- $\mathdefault{10^{-5}}$ -->
      <g transform="translate(217.22 213.2465625)scale(0.18 -0.18)">
       <use transform="translate(0.0 0.7156250000000028)" xlink:href="#BitstreamVeraSans-Roman-31"/>
       <use transform="translate(63.623046875 0.7156250000000028)" xlink:href="#BitstreamVeraSans-Roman-30"/>
       <use transform="translate(132.75859375 47.965625)scale(0.7)" xlink:href="#BitstreamVeraSans-Roman-2d"/>
       <use transform="translate(158.0173828125 47.965625)scale(0.7)" xlink:href="#BitstreamVeraSans-Roman-35"/>
      </g>
     </g>
    </g>
    <g id="ytick_15">
     <g id="line2d_48">
      <defs>
       <path d="M 0 0 
L 2 0 
" id="mafbc536b83" style="stroke:#000000;stroke-width:0.5;"/>
      </defs>
      <g>
       <use style="stroke:#000000;stroke-width:0.5;" x="259.2" xlink:href="#mafbc536b83" y="297.658777568"/>
      </g>
     </g>
     <g id="line2d_49">
      <defs>
       <path d="M 0 0 
L -2 0 
" id="ma30ce2ff2e" style="stroke:#000000;stroke-width:0.5;"/>
      </defs>
      <g>
       <use style="stroke:#000000;stroke-width:0.5;" x="367.2" xlink:href="#ma30ce2ff2e" y="297.658777568"/>
      </g>
     </g>
    </g>
    <g id="ytick_16">
     <g id="line2d_50">
      <g>
       <use style="stroke:#000000;stroke-width:0.5;" x="259.2" xlink:href="#mafbc536b83" y="292.917555137"/>
      </g>
     </g>
     <g id="line2d_51">
      <g>
       <use style="stroke:#000000;stroke-width:0.5;" x="367.2" xlink:href="#ma30ce2ff2e" y="292.917555137"/>
      </g>
     </g>
    </g>
    <g id="ytick_17">
     <g id="line2d_52">
      <g>
       <use style="stroke:#000000;stroke-width:0.5;" x="259.2" xlink:href="#mafbc536b83" y="290.144117806"/>
      </g>
     </g>
     <g id="line2d_53">
      <g>
       <use style="stroke:#000000;stroke-width:0.5;" x="367.2" xlink:href="#ma30ce2ff2e" y="290.144117806"/>
      </g>
     </g>
    </g>
    <g id="ytick_18">
     <g id="line2d_54">
      <g>
       <use style="stroke:#000000;stroke-width:0.5;" x="259.2" xlink:href="#mafbc536b83" y="288.176332705"/>
      </g>
     </g>
     <g id="line2d_55">
      <g>
       <use style="stroke:#000000;stroke-width:0.5;" x="367.2" xlink:href="#ma30ce2ff2e" y="288.176332705"/>
      </g>
     </g>
    </g>
    <g id="ytick_19">
     <g id="line2d_56">
      <g>
       <use style="stroke:#000000;stroke-width:0.5;" x="259.2" xlink:href="#mafbc536b83" y="281.908777568"/>
      </g>
     </g>
     <g id="line2d_57">
      <g>
       <use style="stroke:#000000;stroke-width:0.5;" x="367.2" xlink:href="#ma30ce2ff2e" y="281.908777568"/>
      </g>
     </g>
    </g>
    <g id="ytick_20">
     <g id="line2d_58">
      <g>
       <use style="stroke:#000000;stroke-width:0.5;" x="259.2" xlink:href="#mafbc536b83" y="277.167555137"/>
      </g>
     </g>
     <g id="line2d_59">
      <g>
       <use style="stroke:#000000;stroke-width:0.5;" x="367.2" xlink:href="#ma30ce2ff2e" y="277.167555137"/>
      </g>
     </g>
    </g>
    <g id="ytick_21">
     <g id="line2d_60">
      <g>
       <use style="stroke:#000000;stroke-width:0.5;" x="259.2" xlink:href="#mafbc536b83" y="274.394117806"/>
      </g>
     </g>
     <g id="line2d_61">
      <g>
       <use style="stroke:#000000;stroke-width:0.5;" x="367.2" xlink:href="#ma30ce2ff2e" y="274.394117806"/>
      </g>
     </g>
    </g>
    <g id="ytick_22">
     <g id="line2d_62">
      <g>
       <use style="stroke:#000000;stroke-width:0.5;" x="259.2" xlink:href="#mafbc536b83" y="272.426332705"/>
      </g>
     </g>
     <g id="line2d_63">
      <g>
       <use style="stroke:#000000;stroke-width:0.5;" x="367.2" xlink:href="#ma30ce2ff2e" y="272.426332705"/>
      </g>
     </g>
    </g>
    <g id="ytick_23">
     <g id="line2d_64">
      <g>
       <use style="stroke:#000000;stroke-width:0.5;" x="259.2" xlink:href="#mafbc536b83" y="266.158777568"/>
      </g>
     </g>
     <g id="line2d_65">
      <g>
       <use style="stroke:#000000;stroke-width:0.5;" x="367.2" xlink:href="#ma30ce2ff2e" y="266.158777568"/>
      </g>
     </g>
    </g>
    <g id="ytick_24">
     <g id="line2d_66">
      <g>
       <use style="stroke:#000000;stroke-width:0.5;" x="259.2" xlink:href="#mafbc536b83" y="261.417555137"/>
      </g>
     </g>
     <g id="line2d_67">
      <g>
       <use style="stroke:#000000;stroke-width:0.5;" x="367.2" xlink:href="#ma30ce2ff2e" y="261.417555137"/>
      </g>
     </g>
    </g>
    <g id="ytick_25">
     <g id="line2d_68">
      <g>
       <use style="stroke:#000000;stroke-width:0.5;" x="259.2" xlink:href="#mafbc536b83" y="258.644117806"/>
      </g>
     </g>
     <g id="line2d_69">
      <g>
       <use style="stroke:#000000;stroke-width:0.5;" x="367.2" xlink:href="#ma30ce2ff2e" y="258.644117806"/>
      </g>
     </g>
    </g>
    <g id="ytick_26">
     <g id="line2d_70">
      <g>
       <use style="stroke:#000000;stroke-width:0.5;" x="259.2" xlink:href="#mafbc536b83" y="256.676332705"/>
      </g>
     </g>
     <g id="line2d_71">
      <g>
       <use style="stroke:#000000;stroke-width:0.5;" x="367.2" xlink:href="#ma30ce2ff2e" y="256.676332705"/>
      </g>
     </g>
    </g>
    <g id="ytick_27">
     <g id="line2d_72">
      <g>
       <use style="stroke:#000000;stroke-width:0.5;" x="259.2" xlink:href="#mafbc536b83" y="250.408777568"/>
      </g>
     </g>
     <g id="line2d_73">
      <g>
       <use style="stroke:#000000;stroke-width:0.5;" x="367.2" xlink:href="#ma30ce2ff2e" y="250.408777568"/>
      </g>
     </g>
    </g>
    <g id="ytick_28">
     <g id="line2d_74">
      <g>
       <use style="stroke:#000000;stroke-width:0.5;" x="259.2" xlink:href="#mafbc536b83" y="245.667555137"/>
      </g>
     </g>
     <g id="line2d_75">
      <g>
       <use style="stroke:#000000;stroke-width:0.5;" x="367.2" xlink:href="#ma30ce2ff2e" y="245.667555137"/>
      </g>
     </g>
    </g>
    <g id="ytick_29">
     <g id="line2d_76">
      <g>
       <use style="stroke:#000000;stroke-width:0.5;" x="259.2" xlink:href="#mafbc536b83" y="242.894117806"/>
      </g>
     </g>
     <g id="line2d_77">
      <g>
       <use style="stroke:#000000;stroke-width:0.5;" x="367.2" xlink:href="#ma30ce2ff2e" y="242.894117806"/>
      </g>
     </g>
    </g>
    <g id="ytick_30">
     <g id="line2d_78">
      <g>
       <use style="stroke:#000000;stroke-width:0.5;" x="259.2" xlink:href="#mafbc536b83" y="240.926332705"/>
      </g>
     </g>
     <g id="line2d_79">
      <g>
       <use style="stroke:#000000;stroke-width:0.5;" x="367.2" xlink:href="#ma30ce2ff2e" y="240.926332705"/>
      </g>
     </g>
    </g>
    <g id="ytick_31">
     <g id="line2d_80">
      <g>
       <use style="stroke:#000000;stroke-width:0.5;" x="259.2" xlink:href="#mafbc536b83" y="234.658777568"/>
      </g>
     </g>
     <g id="line2d_81">
      <g>
       <use style="stroke:#000000;stroke-width:0.5;" x="367.2" xlink:href="#ma30ce2ff2e" y="234.658777568"/>
      </g>
     </g>
    </g>
    <g id="ytick_32">
     <g id="line2d_82">
      <g>
       <use style="stroke:#000000;stroke-width:0.5;" x="259.2" xlink:href="#mafbc536b83" y="229.917555137"/>
      </g>
     </g>
     <g id="line2d_83">
      <g>
       <use style="stroke:#000000;stroke-width:0.5;" x="367.2" xlink:href="#ma30ce2ff2e" y="229.917555137"/>
      </g>
     </g>
    </g>
    <g id="ytick_33">
     <g id="line2d_84">
      <g>
       <use style="stroke:#000000;stroke-width:0.5;" x="259.2" xlink:href="#mafbc536b83" y="227.144117806"/>
      </g>
     </g>
     <g id="line2d_85">
      <g>
       <use style="stroke:#000000;stroke-width:0.5;" x="367.2" xlink:href="#ma30ce2ff2e" y="227.144117806"/>
      </g>
     </g>
    </g>
    <g id="ytick_34">
     <g id="line2d_86">
      <g>
       <use style="stroke:#000000;stroke-width:0.5;" x="259.2" xlink:href="#mafbc536b83" y="225.176332705"/>
      </g>
     </g>
     <g id="line2d_87">
      <g>
       <use style="stroke:#000000;stroke-width:0.5;" x="367.2" xlink:href="#ma30ce2ff2e" y="225.176332705"/>
      </g>
     </g>
    </g>
    <g id="ytick_35">
     <g id="line2d_88">
      <g>
       <use style="stroke:#000000;stroke-width:0.5;" x="259.2" xlink:href="#mafbc536b83" y="218.908777568"/>
      </g>
     </g>
     <g id="line2d_89">
      <g>
       <use style="stroke:#000000;stroke-width:0.5;" x="367.2" xlink:href="#ma30ce2ff2e" y="218.908777568"/>
      </g>
     </g>
    </g>
    <g id="ytick_36">
     <g id="line2d_90">
      <g>
       <use style="stroke:#000000;stroke-width:0.5;" x="259.2" xlink:href="#mafbc536b83" y="214.167555137"/>
      </g>
     </g>
     <g id="line2d_91">
      <g>
       <use style="stroke:#000000;stroke-width:0.5;" x="367.2" xlink:href="#ma30ce2ff2e" y="214.167555137"/>
      </g>
     </g>
    </g>
    <g id="ytick_37">
     <g id="line2d_92">
      <g>
       <use style="stroke:#000000;stroke-width:0.5;" x="259.2" xlink:href="#mafbc536b83" y="211.394117806"/>
      </g>
     </g>
     <g id="line2d_93">
      <g>
       <use style="stroke:#000000;stroke-width:0.5;" x="367.2" xlink:href="#ma30ce2ff2e" y="211.394117806"/>
      </g>
     </g>
    </g>
    <g id="ytick_38">
     <g id="line2d_94">
      <g>
       <use style="stroke:#000000;stroke-width:0.5;" x="259.2" xlink:href="#mafbc536b83" y="209.426332705"/>
      </g>
     </g>
     <g id="line2d_95">
      <g>
       <use style="stroke:#000000;stroke-width:0.5;" x="367.2" xlink:href="#ma30ce2ff2e" y="209.426332705"/>
      </g>
     </g>
    </g>
    <g id="ytick_39">
     <g id="line2d_96">
      <g>
       <use style="stroke:#000000;stroke-width:0.5;" x="259.2" xlink:href="#mafbc536b83" y="203.158777568"/>
      </g>
     </g>
     <g id="line2d_97">
      <g>
       <use style="stroke:#000000;stroke-width:0.5;" x="367.2" xlink:href="#ma30ce2ff2e" y="203.158777568"/>
      </g>
     </g>
    </g>
    <g id="ytick_40">
     <g id="line2d_98">
      <g>
       <use style="stroke:#000000;stroke-width:0.5;" x="259.2" xlink:href="#mafbc536b83" y="198.417555137"/>
      </g>
     </g>
     <g id="line2d_99">
      <g>
       <use style="stroke:#000000;stroke-width:0.5;" x="367.2" xlink:href="#ma30ce2ff2e" y="198.417555137"/>
      </g>
     </g>
    </g>
    <g id="ytick_41">
     <g id="line2d_100">
      <g>
       <use style="stroke:#000000;stroke-width:0.5;" x="259.2" xlink:href="#mafbc536b83" y="195.644117806"/>
      </g>
     </g>
     <g id="line2d_101">
      <g>
       <use style="stroke:#000000;stroke-width:0.5;" x="367.2" xlink:href="#ma30ce2ff2e" y="195.644117806"/>
      </g>
     </g>
    </g>
    <g id="ytick_42">
     <g id="line2d_102">
      <g>
       <use style="stroke:#000000;stroke-width:0.5;" x="259.2" xlink:href="#mafbc536b83" y="193.676332705"/>
      </g>
     </g>
     <g id="line2d_103">
      <g>
       <use style="stroke:#000000;stroke-width:0.5;" x="367.2" xlink:href="#ma30ce2ff2e" y="193.676332705"/>
      </g>
     </g>
    </g>
    <g id="ytick_43">
     <g id="line2d_104">
      <g>
       <use style="stroke:#000000;stroke-width:0.5;" x="259.2" xlink:href="#mafbc536b83" y="187.408777568"/>
      </g>
     </g>
     <g id="line2d_105">
      <g>
       <use style="stroke:#000000;stroke-width:0.5;" x="367.2" xlink:href="#ma30ce2ff2e" y="187.408777568"/>
      </g>
     </g>
    </g>
    <g id="ytick_44">
     <g id="line2d_106">
      <g>
       <use style="stroke:#000000;stroke-width:0.5;" x="259.2" xlink:href="#mafbc536b83" y="182.667555137"/>
      </g>
     </g>
     <g id="line2d_107">
      <g>
       <use style="stroke:#000000;stroke-width:0.5;" x="367.2" xlink:href="#ma30ce2ff2e" y="182.667555137"/>
      </g>
     </g>
    </g>
    <g id="ytick_45">
     <g id="line2d_108">
      <g>
       <use style="stroke:#000000;stroke-width:0.5;" x="259.2" xlink:href="#mafbc536b83" y="179.894117806"/>
      </g>
     </g>
     <g id="line2d_109">
      <g>
       <use style="stroke:#000000;stroke-width:0.5;" x="367.2" xlink:href="#ma30ce2ff2e" y="179.894117806"/>
      </g>
     </g>
    </g>
    <g id="ytick_46">
     <g id="line2d_110">
      <g>
       <use style="stroke:#000000;stroke-width:0.5;" x="259.2" xlink:href="#mafbc536b83" y="177.926332705"/>
      </g>
     </g>
     <g id="line2d_111">
      <g>
       <use style="stroke:#000000;stroke-width:0.5;" x="367.2" xlink:href="#ma30ce2ff2e" y="177.926332705"/>
      </g>
     </g>
    </g>
   </g>
   <g id="text_24">
    <!-- $\mathrm{Log\;IV}$ -->
    <defs>
     <path d="M 2.59375 0 
L 2.59375 3.515625 
Q 13.375 3.515625 13.375 6.6875 
L 13.375 61.625 
Q 13.375 64.796875 2.59375 64.796875 
L 2.59375 68.3125 
L 33.5 68.3125 
L 33.5 64.796875 
Q 22.703125 64.796875 22.703125 61.625 
L 22.703125 6.6875 
Q 22.703125 3.515625 33.5 3.515625 
L 33.5 0 
z
" id="Cmr10-49"/>
     <path d="M 3.078125 0 
L 3.078125 3.515625 
Q 13.375 3.515625 13.375 6.6875 
L 13.375 61.625 
Q 13.375 64.796875 3.078125 64.796875 
L 3.078125 68.3125 
L 35.5 68.3125 
L 35.5 64.796875 
Q 22.703125 64.796875 22.703125 61.625 
L 22.703125 6.6875 
Q 22.703125 4.546875 23.921875 4.03125 
Q 25.140625 3.515625 27.78125 3.515625 
L 35.5 3.515625 
Q 42.96875 3.515625 47.015625 6.25 
Q 51.078125 8.984375 52.75 13.6875 
Q 54.4375 18.40625 55.328125 26.21875 
L 58.203125 26.21875 
L 55.421875 0 
z
" id="Cmr10-4c"/>
     <path d="M 25 -1.125 
Q 19 -1.125 13.859375 1.921875 
Q 8.734375 4.984375 5.75 10.109375 
Q 2.78125 15.234375 2.78125 21.296875 
Q 2.78125 25.875 4.421875 30.125 
Q 6.0625 34.375 9.109375 37.71875 
Q 12.15625 41.0625 16.203125 42.9375 
Q 20.265625 44.828125 25 44.828125 
Q 31.15625 44.828125 36.203125 41.578125 
Q 41.265625 38.328125 44.1875 32.875 
Q 47.125 27.4375 47.125 21.296875 
Q 47.125 15.28125 44.140625 10.125 
Q 41.15625 4.984375 36.046875 1.921875 
Q 30.953125 -1.125 25 -1.125 
M 25 1.8125 
Q 33.015625 1.8125 35.6875 7.609375 
Q 38.375 13.421875 38.375 22.40625 
Q 38.375 27.4375 37.84375 30.734375 
Q 37.3125 34.03125 35.5 36.71875 
Q 34.375 38.375 32.640625 39.625 
Q 30.90625 40.875 28.96875 41.53125 
Q 27.046875 42.1875 25 42.1875 
Q 21.875 42.1875 19.0625 40.765625 
Q 16.265625 39.359375 14.40625 36.71875 
Q 12.546875 33.890625 12.03125 30.484375 
Q 11.53125 27.09375 11.53125 22.40625 
Q 11.53125 16.796875 12.5 12.328125 
Q 13.484375 7.859375 16.4375 4.828125 
Q 19.390625 1.8125 25 1.8125 
" id="Cmr10-6f"/>
     <path d="M 2.78125 -7.8125 
Q 2.78125 -4.25 5.359375 -1.578125 
Q 7.953125 1.078125 11.53125 2.203125 
Q 9.515625 3.71875 8.46875 6 
Q 7.421875 8.296875 7.421875 10.890625 
Q 7.421875 15.578125 10.40625 19.1875 
Q 5.8125 23.6875 5.8125 29.5 
Q 5.8125 32.625 7.15625 35.359375 
Q 8.5 38.09375 10.890625 40.09375 
Q 13.28125 42.09375 16.203125 43.140625 
Q 19.140625 44.1875 22.21875 44.1875 
Q 28.171875 44.1875 32.90625 40.71875 
Q 34.96875 42.921875 37.765625 44.109375 
Q 40.578125 45.3125 43.609375 45.3125 
Q 45.75 45.3125 47.109375 43.765625 
Q 48.484375 42.234375 48.484375 40.09375 
Q 48.484375 38.875 47.546875 37.9375 
Q 46.625 37.015625 45.40625 37.015625 
Q 44.140625 37.015625 43.203125 37.9375 
Q 42.28125 38.875 42.28125 40.09375 
Q 42.28125 41.9375 43.5 42.671875 
Q 38.328125 42.671875 34.625 39.109375 
Q 36.421875 37.3125 37.515625 34.6875 
Q 38.625 32.078125 38.625 29.5 
Q 38.625 25.25 36.28125 21.84375 
Q 33.9375 18.453125 30.09375 16.578125 
Q 26.265625 14.703125 22.21875 14.703125 
Q 16.75 14.703125 12.203125 17.671875 
Q 10.796875 15.71875 10.796875 13.28125 
Q 10.796875 10.640625 12.53125 8.65625 
Q 14.265625 6.6875 16.890625 6.6875 
L 25.09375 6.6875 
Q 31.0625 6.6875 35.84375 5.609375 
Q 40.625 4.546875 43.875 1.3125 
Q 47.125 -1.90625 47.125 -7.8125 
Q 47.125 -12.203125 43.40625 -15.109375 
Q 39.703125 -18.015625 34.546875 -19.3125 
Q 29.390625 -20.609375 25 -20.609375 
Q 20.5625 -20.609375 15.375 -19.3125 
Q 10.203125 -18.015625 6.484375 -15.109375 
Q 2.78125 -12.203125 2.78125 -7.8125 
M 8.40625 -7.8125 
Q 8.40625 -11.1875 11.140625 -13.453125 
Q 13.875 -15.71875 17.71875 -16.8125 
Q 21.578125 -17.921875 25 -17.921875 
Q 28.375 -17.921875 32.21875 -16.8125 
Q 36.078125 -15.71875 38.78125 -13.453125 
Q 41.5 -11.1875 41.5 -7.8125 
Q 41.5 -2.59375 36.71875 -1.046875 
Q 31.9375 0.484375 25.09375 0.484375 
L 16.890625 0.484375 
Q 14.59375 0.484375 12.671875 -0.609375 
Q 10.75 -1.703125 9.578125 -3.6875 
Q 8.40625 -5.671875 8.40625 -7.8125 
M 22.21875 17.390625 
Q 30.71875 17.390625 30.71875 29.5 
Q 30.71875 34.71875 28.90625 38.109375 
Q 27.09375 41.5 22.21875 41.5 
Q 17.328125 41.5 15.515625 38.109375 
Q 13.71875 34.71875 13.71875 29.5 
Q 13.71875 26.171875 14.40625 23.484375 
Q 15.09375 20.796875 16.9375 19.09375 
Q 18.796875 17.390625 22.21875 17.390625 
" id="Cmr10-67"/>
    </defs>
    <g transform="translate(281.124 171.4)scale(0.21599999999999997 -0.21599999999999997)">
     <use transform="translate(0.0 0.6875)" xlink:href="#Cmr10-4c"/>
     <use transform="translate(62.5 0.6875)" xlink:href="#Cmr10-6f"/>
     <use transform="translate(112.5 0.6875)" xlink:href="#Cmr10-67"/>
     <use transform="translate(185.639291015625 0.6875)" xlink:href="#Cmr10-49"/>
     <use transform="translate(221.723275390625 0.6875)" xlink:href="#Cmr10-56"/>
    </g>
   </g>
  </g>
 </g>
 <defs>
  <clipPath id="p4a3426adad">
   <rect height="190.5384375" width="325.62" x="86.94" y="246.5184375"/>
  </clipPath>
  <clipPath id="p7e0996523a">
   <rect height="190.5384375" width="325.62" x="86.94" y="27.99"/>
  </clipPath>
  <clipPath id="pb57e87c755">
   <rect height="126.0" width="108.0" x="259.2" y="176.4"/>
  </clipPath>
 </defs>
</svg>
