<?xml version="1.0" encoding="utf-8" standalone="no"?>
<!DOCTYPE svg PUBLIC "-//W3C//DTD SVG 1.1//EN"
  "http://www.w3.org/Graphics/SVG/1.1/DTD/svg11.dtd">
<!-- Created with matplotlib (http://matplotlib.org/) -->
<svg height="504pt" version="1.1" viewBox="0 0 432 504" width="432pt" xmlns="http://www.w3.org/2000/svg" xmlns:xlink="http://www.w3.org/1999/xlink">
 <defs>
  <style type="text/css">
*{stroke-linecap:butt;stroke-linejoin:round;stroke-miterlimit:100000;}
  </style>
 </defs>
 <g id="figure_1">
  <g id="patch_1">
   <path d="M 0 504 
L 432 504 
L 432 0 
L 0 0 
z
" style="fill:#ffffff;"/>
  </g>
  <g id="axes_1">
   <g id="patch_2">
    <path d="M 88.045629 437.056875 
L 398.2725 437.056875 
L 398.2725 30.0825 
L 88.045629 30.0825 
z
" style="fill:#ffffff;"/>
   </g>
   <g id="line2d_1">
    <path clip-path="url(#p5c84b3f6b1)" d="M 88.045629 413.335719 
L 113.535212 366.402253 
L 132.807823 331.359505 
L 148.350251 303.544214 
L 161.405891 280.619634 
L 172.596439 261.3968 
L 182.543594 244.728477 
L 191.869051 229.537671 
L 199.951113 216.773706 
L 207.411479 205.36962 
L 214.871845 194.369959 
L 221.710513 184.674442 
L 228.549182 175.375661 
L 234.766153 167.283466 
L 240.983124 159.54626 
L 247.200096 152.169766 
L 253.417067 145.154974 
L 259.634039 138.498587 
L 265.85101 132.193773 
L 272.067981 126.231076 
L 278.284953 120.599285 
L 284.501924 115.286126 
L 290.718895 110.278705 
L 296.935867 105.56371 
L 303.152838 101.127467 
L 309.369809 96.955925 
L 315.586781 93.034664 
L 322.425449 88.992786 
L 329.264118 85.216166 
L 336.102786 81.685126 
L 343.563152 78.090579 
L 351.023518 74.741472 
L 359.10558 71.364181 
L 367.187643 68.222168 
L 375.891403 65.074188 
L 385.21686 61.943128 
L 395.164014 58.847365 
L 398.2725 57.926833 
L 398.2725 57.926833 
" style="fill:none;stroke:#0000ff;stroke-linecap:square;"/>
   </g>
   <g id="patch_3">
    <path d="M 88.045629 437.056875 
L 88.045629 30.0825 
" style="fill:none;stroke:#000000;stroke-linecap:square;stroke-linejoin:miter;"/>
   </g>
   <g id="patch_4">
    <path d="M 398.2725 437.056875 
L 398.2725 30.0825 
" style="fill:none;stroke:#000000;stroke-linecap:square;stroke-linejoin:miter;"/>
   </g>
   <g id="patch_5">
    <path d="M 88.045629 30.0825 
L 398.2725 30.0825 
" style="fill:none;stroke:#000000;stroke-linecap:square;stroke-linejoin:miter;"/>
   </g>
   <g id="patch_6">
    <path d="M 88.045629 437.056875 
L 398.2725 437.056875 
" style="fill:none;stroke:#000000;stroke-linecap:square;stroke-linejoin:miter;"/>
   </g>
   <g id="matplotlib.axis_1">
    <g id="xtick_1">
     <g id="line2d_2">
      <defs>
       <path d="M 0 0 
L 0 -4 
" id="m8f269ef1ed" style="stroke:#000000;stroke-width:0.5;"/>
      </defs>
      <g>
       <use style="stroke:#000000;stroke-width:0.5;" x="88.0456289063" xlink:href="#m8f269ef1ed" y="437.056875"/>
      </g>
     </g>
     <g id="line2d_3">
      <defs>
       <path d="M 0 0 
L 0 4 
" id="m39fc80380d" style="stroke:#000000;stroke-width:0.5;"/>
      </defs>
      <g>
       <use style="stroke:#000000;stroke-width:0.5;" x="88.0456289063" xlink:href="#m39fc80380d" y="30.0825"/>
      </g>
     </g>
     <g id="text_1">
      <!-- 0.0 -->
      <defs>
       <path d="M 10.6875 12.40625 
L 21 12.40625 
L 21 0 
L 10.6875 0 
z
" id="BitstreamVeraSans-Roman-2e"/>
       <path d="M 31.78125 66.40625 
Q 24.171875 66.40625 20.328125 58.90625 
Q 16.5 51.421875 16.5 36.375 
Q 16.5 21.390625 20.328125 13.890625 
Q 24.171875 6.390625 31.78125 6.390625 
Q 39.453125 6.390625 43.28125 13.890625 
Q 47.125 21.390625 47.125 36.375 
Q 47.125 51.421875 43.28125 58.90625 
Q 39.453125 66.40625 31.78125 66.40625 
M 31.78125 74.21875 
Q 44.046875 74.21875 50.515625 64.515625 
Q 56.984375 54.828125 56.984375 36.375 
Q 56.984375 17.96875 50.515625 8.265625 
Q 44.046875 -1.421875 31.78125 -1.421875 
Q 19.53125 -1.421875 13.0625 8.265625 
Q 6.59375 17.96875 6.59375 36.375 
Q 6.59375 54.828125 13.0625 64.515625 
Q 19.53125 74.21875 31.78125 74.21875 
" id="BitstreamVeraSans-Roman-30"/>
      </defs>
      <g transform="translate(73.7328164063 454.7340625)scale(0.18 -0.18)">
       <use xlink:href="#BitstreamVeraSans-Roman-30"/>
       <use x="63.623046875" xlink:href="#BitstreamVeraSans-Roman-2e"/>
       <use x="95.41015625" xlink:href="#BitstreamVeraSans-Roman-30"/>
      </g>
     </g>
    </g>
    <g id="xtick_2">
     <g id="line2d_4">
      <g>
       <use style="stroke:#000000;stroke-width:0.5;" x="150.091003125" xlink:href="#m8f269ef1ed" y="437.056875"/>
      </g>
     </g>
     <g id="line2d_5">
      <g>
       <use style="stroke:#000000;stroke-width:0.5;" x="150.091003125" xlink:href="#m39fc80380d" y="30.0825"/>
      </g>
     </g>
     <g id="text_2">
      <!-- 0.1 -->
      <defs>
       <path d="M 12.40625 8.296875 
L 28.515625 8.296875 
L 28.515625 63.921875 
L 10.984375 60.40625 
L 10.984375 69.390625 
L 28.421875 72.90625 
L 38.28125 72.90625 
L 38.28125 8.296875 
L 54.390625 8.296875 
L 54.390625 0 
L 12.40625 0 
z
" id="BitstreamVeraSans-Roman-31"/>
      </defs>
      <g transform="translate(135.778190625 454.7340625)scale(0.18 -0.18)">
       <use xlink:href="#BitstreamVeraSans-Roman-30"/>
       <use x="63.623046875" xlink:href="#BitstreamVeraSans-Roman-2e"/>
       <use x="95.41015625" xlink:href="#BitstreamVeraSans-Roman-31"/>
      </g>
     </g>
    </g>
    <g id="xtick_3">
     <g id="line2d_6">
      <g>
       <use style="stroke:#000000;stroke-width:0.5;" x="212.136377344" xlink:href="#m8f269ef1ed" y="437.056875"/>
      </g>
     </g>
     <g id="line2d_7">
      <g>
       <use style="stroke:#000000;stroke-width:0.5;" x="212.136377344" xlink:href="#m39fc80380d" y="30.0825"/>
      </g>
     </g>
     <g id="text_3">
      <!-- 0.2 -->
      <defs>
       <path d="M 19.1875 8.296875 
L 53.609375 8.296875 
L 53.609375 0 
L 7.328125 0 
L 7.328125 8.296875 
Q 12.9375 14.109375 22.625 23.890625 
Q 32.328125 33.6875 34.8125 36.53125 
Q 39.546875 41.84375 41.421875 45.53125 
Q 43.3125 49.21875 43.3125 52.78125 
Q 43.3125 58.59375 39.234375 62.25 
Q 35.15625 65.921875 28.609375 65.921875 
Q 23.96875 65.921875 18.8125 64.3125 
Q 13.671875 62.703125 7.8125 59.421875 
L 7.8125 69.390625 
Q 13.765625 71.78125 18.9375 73 
Q 24.125 74.21875 28.421875 74.21875 
Q 39.75 74.21875 46.484375 68.546875 
Q 53.21875 62.890625 53.21875 53.421875 
Q 53.21875 48.921875 51.53125 44.890625 
Q 49.859375 40.875 45.40625 35.40625 
Q 44.1875 33.984375 37.640625 27.21875 
Q 31.109375 20.453125 19.1875 8.296875 
" id="BitstreamVeraSans-Roman-32"/>
      </defs>
      <g transform="translate(197.823564844 454.7340625)scale(0.18 -0.18)">
       <use xlink:href="#BitstreamVeraSans-Roman-30"/>
       <use x="63.623046875" xlink:href="#BitstreamVeraSans-Roman-2e"/>
       <use x="95.41015625" xlink:href="#BitstreamVeraSans-Roman-32"/>
      </g>
     </g>
    </g>
    <g id="xtick_4">
     <g id="line2d_8">
      <g>
       <use style="stroke:#000000;stroke-width:0.5;" x="274.181751563" xlink:href="#m8f269ef1ed" y="437.056875"/>
      </g>
     </g>
     <g id="line2d_9">
      <g>
       <use style="stroke:#000000;stroke-width:0.5;" x="274.181751563" xlink:href="#m39fc80380d" y="30.0825"/>
      </g>
     </g>
     <g id="text_4">
      <!-- 0.3 -->
      <defs>
       <path d="M 40.578125 39.3125 
Q 47.65625 37.796875 51.625 33 
Q 55.609375 28.21875 55.609375 21.1875 
Q 55.609375 10.40625 48.1875 4.484375 
Q 40.765625 -1.421875 27.09375 -1.421875 
Q 22.515625 -1.421875 17.65625 -0.515625 
Q 12.796875 0.390625 7.625 2.203125 
L 7.625 11.71875 
Q 11.71875 9.328125 16.59375 8.109375 
Q 21.484375 6.890625 26.8125 6.890625 
Q 36.078125 6.890625 40.9375 10.546875 
Q 45.796875 14.203125 45.796875 21.1875 
Q 45.796875 27.640625 41.28125 31.265625 
Q 36.765625 34.90625 28.71875 34.90625 
L 20.21875 34.90625 
L 20.21875 43.015625 
L 29.109375 43.015625 
Q 36.375 43.015625 40.234375 45.921875 
Q 44.09375 48.828125 44.09375 54.296875 
Q 44.09375 59.90625 40.109375 62.90625 
Q 36.140625 65.921875 28.71875 65.921875 
Q 24.65625 65.921875 20.015625 65.03125 
Q 15.375 64.15625 9.8125 62.3125 
L 9.8125 71.09375 
Q 15.4375 72.65625 20.34375 73.4375 
Q 25.25 74.21875 29.59375 74.21875 
Q 40.828125 74.21875 47.359375 69.109375 
Q 53.90625 64.015625 53.90625 55.328125 
Q 53.90625 49.265625 50.4375 45.09375 
Q 46.96875 40.921875 40.578125 39.3125 
" id="BitstreamVeraSans-Roman-33"/>
      </defs>
      <g transform="translate(259.868939063 454.7340625)scale(0.18 -0.18)">
       <use xlink:href="#BitstreamVeraSans-Roman-30"/>
       <use x="63.623046875" xlink:href="#BitstreamVeraSans-Roman-2e"/>
       <use x="95.41015625" xlink:href="#BitstreamVeraSans-Roman-33"/>
      </g>
     </g>
    </g>
    <g id="xtick_5">
     <g id="line2d_10">
      <g>
       <use style="stroke:#000000;stroke-width:0.5;" x="336.227125781" xlink:href="#m8f269ef1ed" y="437.056875"/>
      </g>
     </g>
     <g id="line2d_11">
      <g>
       <use style="stroke:#000000;stroke-width:0.5;" x="336.227125781" xlink:href="#m39fc80380d" y="30.0825"/>
      </g>
     </g>
     <g id="text_5">
      <!-- 0.4 -->
      <defs>
       <path d="M 37.796875 64.3125 
L 12.890625 25.390625 
L 37.796875 25.390625 
z
M 35.203125 72.90625 
L 47.609375 72.90625 
L 47.609375 25.390625 
L 58.015625 25.390625 
L 58.015625 17.1875 
L 47.609375 17.1875 
L 47.609375 0 
L 37.796875 0 
L 37.796875 17.1875 
L 4.890625 17.1875 
L 4.890625 26.703125 
z
" id="BitstreamVeraSans-Roman-34"/>
      </defs>
      <g transform="translate(321.914313281 454.7340625)scale(0.18 -0.18)">
       <use xlink:href="#BitstreamVeraSans-Roman-30"/>
       <use x="63.623046875" xlink:href="#BitstreamVeraSans-Roman-2e"/>
       <use x="95.41015625" xlink:href="#BitstreamVeraSans-Roman-34"/>
      </g>
     </g>
    </g>
    <g id="xtick_6">
     <g id="line2d_12">
      <g>
       <use style="stroke:#000000;stroke-width:0.5;" x="398.2725" xlink:href="#m8f269ef1ed" y="437.056875"/>
      </g>
     </g>
     <g id="line2d_13">
      <g>
       <use style="stroke:#000000;stroke-width:0.5;" x="398.2725" xlink:href="#m39fc80380d" y="30.0825"/>
      </g>
     </g>
     <g id="text_6">
      <!-- 0.5 -->
      <defs>
       <path d="M 10.796875 72.90625 
L 49.515625 72.90625 
L 49.515625 64.59375 
L 19.828125 64.59375 
L 19.828125 46.734375 
Q 21.96875 47.46875 24.109375 47.828125 
Q 26.265625 48.1875 28.421875 48.1875 
Q 40.625 48.1875 47.75 41.5 
Q 54.890625 34.8125 54.890625 23.390625 
Q 54.890625 11.625 47.5625 5.09375 
Q 40.234375 -1.421875 26.90625 -1.421875 
Q 22.3125 -1.421875 17.546875 -0.640625 
Q 12.796875 0.140625 7.71875 1.703125 
L 7.71875 11.625 
Q 12.109375 9.234375 16.796875 8.0625 
Q 21.484375 6.890625 26.703125 6.890625 
Q 35.15625 6.890625 40.078125 11.328125 
Q 45.015625 15.765625 45.015625 23.390625 
Q 45.015625 31 40.078125 35.4375 
Q 35.15625 39.890625 26.703125 39.890625 
Q 22.75 39.890625 18.8125 39.015625 
Q 14.890625 38.140625 10.796875 36.28125 
z
" id="BitstreamVeraSans-Roman-35"/>
      </defs>
      <g transform="translate(383.9596875 454.7340625)scale(0.18 -0.18)">
       <use xlink:href="#BitstreamVeraSans-Roman-30"/>
       <use x="63.623046875" xlink:href="#BitstreamVeraSans-Roman-2e"/>
       <use x="95.41015625" xlink:href="#BitstreamVeraSans-Roman-35"/>
      </g>
     </g>
    </g>
    <g id="text_7">
     <!-- $V_G\;\mathrm{[V]}$ -->
     <defs>
      <path d="M 14.59375 21.921875 
Q 14.59375 15.71875 17.0625 11.046875 
Q 19.53125 6.390625 24.171875 3.84375 
Q 28.8125 1.3125 34.90625 1.3125 
Q 40.875 1.3125 46.234375 4.125 
Q 51.609375 6.9375 52.984375 12.203125 
L 55.171875 20.796875 
Q 55.21875 21.09375 55.265625 21.40625 
Q 55.328125 21.734375 55.328125 21.921875 
Q 55.328125 22.953125 54.6875 23.09375 
Q 52.203125 23.78125 44.671875 23.78125 
Q 43.703125 23.78125 43.703125 25.09375 
Q 44 26.3125 44.234375 26.796875 
Q 44.484375 27.296875 45.40625 27.296875 
L 71.1875 27.296875 
Q 72.21875 27.296875 72.21875 25.984375 
Q 72.171875 25.734375 72.015625 25.140625 
Q 71.875 24.5625 71.625 24.171875 
Q 71.390625 23.78125 70.90625 23.78125 
Q 67.578125 23.78125 66.03125 23.234375 
Q 64.5 22.703125 63.921875 20.40625 
L 61.71875 11.8125 
L 58.890625 0.6875 
Q 58.734375 0 58.015625 0 
Q 57.171875 0 55.609375 2.25 
Q 54.046875 4.5 53.421875 6 
Q 49.953125 1.90625 44.140625 -0.140625 
Q 38.328125 -2.203125 32.171875 -2.203125 
Q 24.421875 -2.203125 18.1875 1.3125 
Q 11.96875 4.828125 8.515625 11.078125 
Q 5.078125 17.328125 5.078125 25.203125 
Q 5.078125 33.59375 8.8125 41.765625 
Q 12.546875 49.953125 18.9375 56.421875 
Q 25.34375 62.890625 33.46875 66.703125 
Q 41.609375 70.515625 49.90625 70.515625 
Q 53.21875 70.515625 56.265625 69.484375 
Q 59.328125 68.453125 61.9375 66.421875 
Q 64.546875 64.40625 66.21875 61.71875 
L 74.125 70.3125 
Q 74.125 70.515625 74.609375 70.515625 
L 75.203125 70.515625 
Q 75.59375 70.515625 75.859375 70.1875 
Q 76.125 69.875 76.125 69.484375 
L 69.28125 42.484375 
Q 69.28125 41.796875 68.5 41.796875 
L 66.703125 41.796875 
Q 65.921875 41.796875 65.921875 42.921875 
Q 66.3125 45.125 66.3125 48.09375 
Q 66.3125 53.03125 64.640625 57.375 
Q 62.984375 61.71875 59.46875 64.359375 
Q 55.953125 67 50.875 67 
Q 42.828125 67 35.984375 62.921875 
Q 29.15625 58.84375 24.40625 52.140625 
Q 19.671875 45.453125 17.125 37.4375 
Q 14.59375 29.4375 14.59375 21.921875 
" id="Cmmi10-47"/>
      <path d="M 2.203125 -25 
L 2.203125 -21 
L 11.921875 -21 
L 11.921875 71 
L 2.203125 71 
L 2.203125 75 
L 15.921875 75 
L 15.921875 -25 
z
" id="Cmr10-5d"/>
      <path d="M 22.015625 -1.125 
L 14.015625 62.59375 
Q 13.28125 64.796875 6.5 64.796875 
Q 5.515625 64.796875 5.515625 66.109375 
Q 5.71875 67.1875 6 67.75 
Q 6.296875 68.3125 7.171875 68.3125 
L 31.59375 68.3125 
Q 32.125 68.3125 32.375 67.921875 
Q 32.625 67.53125 32.625 67 
Q 32.234375 64.796875 31.296875 64.796875 
Q 23.484375 64.796875 23 62.109375 
L 29.59375 9.8125 
L 60.40625 58.984375 
Q 61.28125 60.640625 61.28125 61.625 
Q 61.28125 63.375 59.6875 64.078125 
Q 58.109375 64.796875 56 64.796875 
Q 54.984375 64.796875 54.984375 66.109375 
Q 55.171875 66.890625 55.3125 67.328125 
Q 55.46875 67.78125 55.765625 68.046875 
Q 56.0625 68.3125 56.6875 68.3125 
L 75.984375 68.3125 
Q 76.90625 68.3125 76.90625 67 
Q 76.515625 64.796875 75.59375 64.796875 
Q 68.0625 64.796875 63.8125 58.203125 
Q 63.625 58.015625 63.484375 58.015625 
L 26.609375 -1.125 
Q 25.875 -2.203125 24.703125 -2.203125 
L 23.296875 -2.203125 
Q 22.171875 -2.203125 22.015625 -1.125 
" id="Cmmi10-56"/>
      <path d="M 11.8125 -25 
L 11.8125 75 
L 25.484375 75 
L 25.484375 71 
L 15.828125 71 
L 15.828125 -21 
L 25.484375 -21 
L 25.484375 -25 
z
" id="Cmr10-5b"/>
      <path d="M 35.203125 -1.125 
L 11.625 61.625 
Q 10.75 63.71875 8.25 64.25 
Q 5.765625 64.796875 1.90625 64.796875 
L 1.90625 68.3125 
L 29.390625 68.3125 
L 29.390625 64.796875 
Q 21.09375 64.796875 21.09375 62.203125 
Q 21.140625 62.0625 21.15625 61.9375 
Q 21.1875 61.8125 21.1875 61.625 
L 40.375 10.59375 
L 58.5 58.890625 
Q 58.6875 59.28125 58.6875 60.109375 
Q 58.6875 62.546875 56.4375 63.671875 
Q 54.203125 64.796875 51.421875 64.796875 
L 51.421875 68.3125 
L 73 68.3125 
L 73 64.796875 
Q 69.234375 64.796875 66.375 63.40625 
Q 63.53125 62.015625 62.3125 58.890625 
L 39.703125 -1.125 
Q 39.40625 -2.203125 38.09375 -2.203125 
L 36.8125 -2.203125 
Q 35.5 -2.203125 35.203125 -1.125 
" id="Cmr10-56"/>
     </defs>
     <g transform="translate(218.409064453 476.9775)scale(0.18 -0.18)">
      <use xlink:href="#Cmmi10-56"/>
      <use transform="translate(58.30078125 -17.006249999999994)scale(0.7)" xlink:href="#Cmmi10-47"/>
      <use transform="translate(144.094552734375 0.0)" xlink:href="#Cmr10-5b"/>
      <use transform="translate(171.780099609375 0.0)" xlink:href="#Cmr10-56"/>
      <use transform="translate(246.780099609375 0.0)" xlink:href="#Cmr10-5d"/>
     </g>
    </g>
   </g>
   <g id="matplotlib.axis_2">
    <g id="ytick_1">
     <g id="line2d_14">
      <defs>
       <path d="M 0 0 
L 4 0 
" id="m9ae9af8a07" style="stroke:#000000;stroke-width:0.5;"/>
      </defs>
      <g>
       <use style="stroke:#000000;stroke-width:0.5;" x="88.0456289063" xlink:href="#m9ae9af8a07" y="437.056875"/>
      </g>
     </g>
     <g id="line2d_15">
      <defs>
       <path d="M 0 0 
L -4 0 
" id="mc4d79ea7b8" style="stroke:#000000;stroke-width:0.5;"/>
      </defs>
      <g>
       <use style="stroke:#000000;stroke-width:0.5;" x="398.2725" xlink:href="#mc4d79ea7b8" y="437.056875"/>
      </g>
     </g>
     <g id="text_8">
      <!-- $\mathdefault{10^{-2}}$ -->
      <defs>
       <path d="M 4.890625 31.390625 
L 31.203125 31.390625 
L 31.203125 23.390625 
L 4.890625 23.390625 
z
" id="BitstreamVeraSans-Roman-2d"/>
      </defs>
      <g transform="translate(46.0656289063 442.4934375)scale(0.18 -0.18)">
       <use transform="translate(0.0 0.796875)" xlink:href="#BitstreamVeraSans-Roman-31"/>
       <use transform="translate(63.623046875 0.796875)" xlink:href="#BitstreamVeraSans-Roman-30"/>
       <use transform="translate(132.75859375 48.046875)scale(0.7)" xlink:href="#BitstreamVeraSans-Roman-2d"/>
       <use transform="translate(158.0173828125 48.046875)scale(0.7)" xlink:href="#BitstreamVeraSans-Roman-32"/>
      </g>
     </g>
    </g>
    <g id="ytick_2">
     <g id="line2d_16">
      <g>
       <use style="stroke:#000000;stroke-width:0.5;" x="88.0456289063" xlink:href="#m9ae9af8a07" y="355.662"/>
      </g>
     </g>
     <g id="line2d_17">
      <g>
       <use style="stroke:#000000;stroke-width:0.5;" x="398.2725" xlink:href="#mc4d79ea7b8" y="355.662"/>
      </g>
     </g>
     <g id="text_9">
      <!-- $\mathdefault{10^{-1}}$ -->
      <g transform="translate(46.0656289063 361.0085625)scale(0.18 -0.18)">
       <use transform="translate(0.0 0.7156250000000028)" xlink:href="#BitstreamVeraSans-Roman-31"/>
       <use transform="translate(63.623046875 0.7156250000000028)" xlink:href="#BitstreamVeraSans-Roman-30"/>
       <use transform="translate(132.75859375 47.965625)scale(0.7)" xlink:href="#BitstreamVeraSans-Roman-2d"/>
       <use transform="translate(158.0173828125 47.965625)scale(0.7)" xlink:href="#BitstreamVeraSans-Roman-31"/>
      </g>
     </g>
    </g>
    <g id="ytick_3">
     <g id="line2d_18">
      <g>
       <use style="stroke:#000000;stroke-width:0.5;" x="88.0456289063" xlink:href="#m9ae9af8a07" y="274.267125"/>
      </g>
     </g>
     <g id="line2d_19">
      <g>
       <use style="stroke:#000000;stroke-width:0.5;" x="398.2725" xlink:href="#mc4d79ea7b8" y="274.267125"/>
      </g>
     </g>
     <g id="text_10">
      <!-- $\mathdefault{10^{0}}$ -->
      <g transform="translate(50.5656289063 279.7036875)scale(0.18 -0.18)">
       <use transform="translate(0.0 0.796875)" xlink:href="#BitstreamVeraSans-Roman-31"/>
       <use transform="translate(63.623046875 0.796875)" xlink:href="#BitstreamVeraSans-Roman-30"/>
       <use transform="translate(132.75859375 48.046875)scale(0.7)" xlink:href="#BitstreamVeraSans-Roman-30"/>
      </g>
     </g>
    </g>
    <g id="ytick_4">
     <g id="line2d_20">
      <g>
       <use style="stroke:#000000;stroke-width:0.5;" x="88.0456289063" xlink:href="#m9ae9af8a07" y="192.87225"/>
      </g>
     </g>
     <g id="line2d_21">
      <g>
       <use style="stroke:#000000;stroke-width:0.5;" x="398.2725" xlink:href="#mc4d79ea7b8" y="192.87225"/>
      </g>
     </g>
     <g id="text_11">
      <!-- $\mathdefault{10^{1}}$ -->
      <g transform="translate(50.5656289063 198.2188125)scale(0.18 -0.18)">
       <use transform="translate(0.0 0.7156250000000028)" xlink:href="#BitstreamVeraSans-Roman-31"/>
       <use transform="translate(63.623046875 0.7156250000000028)" xlink:href="#BitstreamVeraSans-Roman-30"/>
       <use transform="translate(132.75859375 47.965625)scale(0.7)" xlink:href="#BitstreamVeraSans-Roman-31"/>
      </g>
     </g>
    </g>
    <g id="ytick_5">
     <g id="line2d_22">
      <g>
       <use style="stroke:#000000;stroke-width:0.5;" x="88.0456289063" xlink:href="#m9ae9af8a07" y="111.477375"/>
      </g>
     </g>
     <g id="line2d_23">
      <g>
       <use style="stroke:#000000;stroke-width:0.5;" x="398.2725" xlink:href="#mc4d79ea7b8" y="111.477375"/>
      </g>
     </g>
     <g id="text_12">
      <!-- $\mathdefault{10^{2}}$ -->
      <g transform="translate(50.5656289063 116.9139375)scale(0.18 -0.18)">
       <use transform="translate(0.0 0.796875)" xlink:href="#BitstreamVeraSans-Roman-31"/>
       <use transform="translate(63.623046875 0.796875)" xlink:href="#BitstreamVeraSans-Roman-30"/>
       <use transform="translate(132.75859375 48.046875)scale(0.7)" xlink:href="#BitstreamVeraSans-Roman-32"/>
      </g>
     </g>
    </g>
    <g id="ytick_6">
     <g id="line2d_24">
      <g>
       <use style="stroke:#000000;stroke-width:0.5;" x="88.0456289063" xlink:href="#m9ae9af8a07" y="30.0825"/>
      </g>
     </g>
     <g id="line2d_25">
      <g>
       <use style="stroke:#000000;stroke-width:0.5;" x="398.2725" xlink:href="#mc4d79ea7b8" y="30.0825"/>
      </g>
     </g>
     <g id="text_13">
      <!-- $\mathdefault{10^{3}}$ -->
      <g transform="translate(50.5656289063 35.5190625)scale(0.18 -0.18)">
       <use transform="translate(0.0 0.796875)" xlink:href="#BitstreamVeraSans-Roman-31"/>
       <use transform="translate(63.623046875 0.796875)" xlink:href="#BitstreamVeraSans-Roman-30"/>
       <use transform="translate(132.75859375 48.046875)scale(0.7)" xlink:href="#BitstreamVeraSans-Roman-33"/>
      </g>
     </g>
    </g>
    <g id="ytick_7">
     <g id="line2d_26">
      <defs>
       <path d="M 0 0 
L 2 0 
" id="mddc3209469" style="stroke:#000000;stroke-width:0.5;"/>
      </defs>
      <g>
       <use style="stroke:#000000;stroke-width:0.5;" x="88.0456289063" xlink:href="#mddc3209469" y="412.554576132"/>
      </g>
     </g>
     <g id="line2d_27">
      <defs>
       <path d="M 0 0 
L -2 0 
" id="m5131d078f1" style="stroke:#000000;stroke-width:0.5;"/>
      </defs>
      <g>
       <use style="stroke:#000000;stroke-width:0.5;" x="398.2725" xlink:href="#m5131d078f1" y="412.554576132"/>
      </g>
     </g>
    </g>
    <g id="ytick_8">
     <g id="line2d_28">
      <g>
       <use style="stroke:#000000;stroke-width:0.5;" x="88.0456289063" xlink:href="#mddc3209469" y="398.221650112"/>
      </g>
     </g>
     <g id="line2d_29">
      <g>
       <use style="stroke:#000000;stroke-width:0.5;" x="398.2725" xlink:href="#m5131d078f1" y="398.221650112"/>
      </g>
     </g>
    </g>
    <g id="ytick_9">
     <g id="line2d_30">
      <g>
       <use style="stroke:#000000;stroke-width:0.5;" x="88.0456289063" xlink:href="#mddc3209469" y="388.052277263"/>
      </g>
     </g>
     <g id="line2d_31">
      <g>
       <use style="stroke:#000000;stroke-width:0.5;" x="398.2725" xlink:href="#m5131d078f1" y="388.052277263"/>
      </g>
     </g>
    </g>
    <g id="ytick_10">
     <g id="line2d_32">
      <g>
       <use style="stroke:#000000;stroke-width:0.5;" x="88.0456289063" xlink:href="#mddc3209469" y="380.164298868"/>
      </g>
     </g>
     <g id="line2d_33">
      <g>
       <use style="stroke:#000000;stroke-width:0.5;" x="398.2725" xlink:href="#m5131d078f1" y="380.164298868"/>
      </g>
     </g>
    </g>
    <g id="ytick_11">
     <g id="line2d_34">
      <g>
       <use style="stroke:#000000;stroke-width:0.5;" x="88.0456289063" xlink:href="#mddc3209469" y="373.719351244"/>
      </g>
     </g>
     <g id="line2d_35">
      <g>
       <use style="stroke:#000000;stroke-width:0.5;" x="398.2725" xlink:href="#m5131d078f1" y="373.719351244"/>
      </g>
     </g>
    </g>
    <g id="ytick_12">
     <g id="line2d_36">
      <g>
       <use style="stroke:#000000;stroke-width:0.5;" x="88.0456289063" xlink:href="#mddc3209469" y="368.27022567"/>
      </g>
     </g>
     <g id="line2d_37">
      <g>
       <use style="stroke:#000000;stroke-width:0.5;" x="398.2725" xlink:href="#m5131d078f1" y="368.27022567"/>
      </g>
     </g>
    </g>
    <g id="ytick_13">
     <g id="line2d_38">
      <g>
       <use style="stroke:#000000;stroke-width:0.5;" x="88.0456289063" xlink:href="#mddc3209469" y="363.549978395"/>
      </g>
     </g>
     <g id="line2d_39">
      <g>
       <use style="stroke:#000000;stroke-width:0.5;" x="398.2725" xlink:href="#m5131d078f1" y="363.549978395"/>
      </g>
     </g>
    </g>
    <g id="ytick_14">
     <g id="line2d_40">
      <g>
       <use style="stroke:#000000;stroke-width:0.5;" x="88.0456289063" xlink:href="#mddc3209469" y="359.386425224"/>
      </g>
     </g>
     <g id="line2d_41">
      <g>
       <use style="stroke:#000000;stroke-width:0.5;" x="398.2725" xlink:href="#m5131d078f1" y="359.386425224"/>
      </g>
     </g>
    </g>
    <g id="ytick_15">
     <g id="line2d_42">
      <g>
       <use style="stroke:#000000;stroke-width:0.5;" x="88.0456289063" xlink:href="#mddc3209469" y="331.159701132"/>
      </g>
     </g>
     <g id="line2d_43">
      <g>
       <use style="stroke:#000000;stroke-width:0.5;" x="398.2725" xlink:href="#m5131d078f1" y="331.159701132"/>
      </g>
     </g>
    </g>
    <g id="ytick_16">
     <g id="line2d_44">
      <g>
       <use style="stroke:#000000;stroke-width:0.5;" x="88.0456289063" xlink:href="#mddc3209469" y="316.826775112"/>
      </g>
     </g>
     <g id="line2d_45">
      <g>
       <use style="stroke:#000000;stroke-width:0.5;" x="398.2725" xlink:href="#m5131d078f1" y="316.826775112"/>
      </g>
     </g>
    </g>
    <g id="ytick_17">
     <g id="line2d_46">
      <g>
       <use style="stroke:#000000;stroke-width:0.5;" x="88.0456289063" xlink:href="#mddc3209469" y="306.657402263"/>
      </g>
     </g>
     <g id="line2d_47">
      <g>
       <use style="stroke:#000000;stroke-width:0.5;" x="398.2725" xlink:href="#m5131d078f1" y="306.657402263"/>
      </g>
     </g>
    </g>
    <g id="ytick_18">
     <g id="line2d_48">
      <g>
       <use style="stroke:#000000;stroke-width:0.5;" x="88.0456289063" xlink:href="#mddc3209469" y="298.769423868"/>
      </g>
     </g>
     <g id="line2d_49">
      <g>
       <use style="stroke:#000000;stroke-width:0.5;" x="398.2725" xlink:href="#m5131d078f1" y="298.769423868"/>
      </g>
     </g>
    </g>
    <g id="ytick_19">
     <g id="line2d_50">
      <g>
       <use style="stroke:#000000;stroke-width:0.5;" x="88.0456289063" xlink:href="#mddc3209469" y="292.324476244"/>
      </g>
     </g>
     <g id="line2d_51">
      <g>
       <use style="stroke:#000000;stroke-width:0.5;" x="398.2725" xlink:href="#m5131d078f1" y="292.324476244"/>
      </g>
     </g>
    </g>
    <g id="ytick_20">
     <g id="line2d_52">
      <g>
       <use style="stroke:#000000;stroke-width:0.5;" x="88.0456289063" xlink:href="#mddc3209469" y="286.87535067"/>
      </g>
     </g>
     <g id="line2d_53">
      <g>
       <use style="stroke:#000000;stroke-width:0.5;" x="398.2725" xlink:href="#m5131d078f1" y="286.87535067"/>
      </g>
     </g>
    </g>
    <g id="ytick_21">
     <g id="line2d_54">
      <g>
       <use style="stroke:#000000;stroke-width:0.5;" x="88.0456289063" xlink:href="#mddc3209469" y="282.155103395"/>
      </g>
     </g>
     <g id="line2d_55">
      <g>
       <use style="stroke:#000000;stroke-width:0.5;" x="398.2725" xlink:href="#m5131d078f1" y="282.155103395"/>
      </g>
     </g>
    </g>
    <g id="ytick_22">
     <g id="line2d_56">
      <g>
       <use style="stroke:#000000;stroke-width:0.5;" x="88.0456289063" xlink:href="#mddc3209469" y="277.991550224"/>
      </g>
     </g>
     <g id="line2d_57">
      <g>
       <use style="stroke:#000000;stroke-width:0.5;" x="398.2725" xlink:href="#m5131d078f1" y="277.991550224"/>
      </g>
     </g>
    </g>
    <g id="ytick_23">
     <g id="line2d_58">
      <g>
       <use style="stroke:#000000;stroke-width:0.5;" x="88.0456289063" xlink:href="#mddc3209469" y="249.764826132"/>
      </g>
     </g>
     <g id="line2d_59">
      <g>
       <use style="stroke:#000000;stroke-width:0.5;" x="398.2725" xlink:href="#m5131d078f1" y="249.764826132"/>
      </g>
     </g>
    </g>
    <g id="ytick_24">
     <g id="line2d_60">
      <g>
       <use style="stroke:#000000;stroke-width:0.5;" x="88.0456289063" xlink:href="#mddc3209469" y="235.431900112"/>
      </g>
     </g>
     <g id="line2d_61">
      <g>
       <use style="stroke:#000000;stroke-width:0.5;" x="398.2725" xlink:href="#m5131d078f1" y="235.431900112"/>
      </g>
     </g>
    </g>
    <g id="ytick_25">
     <g id="line2d_62">
      <g>
       <use style="stroke:#000000;stroke-width:0.5;" x="88.0456289063" xlink:href="#mddc3209469" y="225.262527263"/>
      </g>
     </g>
     <g id="line2d_63">
      <g>
       <use style="stroke:#000000;stroke-width:0.5;" x="398.2725" xlink:href="#m5131d078f1" y="225.262527263"/>
      </g>
     </g>
    </g>
    <g id="ytick_26">
     <g id="line2d_64">
      <g>
       <use style="stroke:#000000;stroke-width:0.5;" x="88.0456289063" xlink:href="#mddc3209469" y="217.374548868"/>
      </g>
     </g>
     <g id="line2d_65">
      <g>
       <use style="stroke:#000000;stroke-width:0.5;" x="398.2725" xlink:href="#m5131d078f1" y="217.374548868"/>
      </g>
     </g>
    </g>
    <g id="ytick_27">
     <g id="line2d_66">
      <g>
       <use style="stroke:#000000;stroke-width:0.5;" x="88.0456289063" xlink:href="#mddc3209469" y="210.929601244"/>
      </g>
     </g>
     <g id="line2d_67">
      <g>
       <use style="stroke:#000000;stroke-width:0.5;" x="398.2725" xlink:href="#m5131d078f1" y="210.929601244"/>
      </g>
     </g>
    </g>
    <g id="ytick_28">
     <g id="line2d_68">
      <g>
       <use style="stroke:#000000;stroke-width:0.5;" x="88.0456289063" xlink:href="#mddc3209469" y="205.48047567"/>
      </g>
     </g>
     <g id="line2d_69">
      <g>
       <use style="stroke:#000000;stroke-width:0.5;" x="398.2725" xlink:href="#m5131d078f1" y="205.48047567"/>
      </g>
     </g>
    </g>
    <g id="ytick_29">
     <g id="line2d_70">
      <g>
       <use style="stroke:#000000;stroke-width:0.5;" x="88.0456289063" xlink:href="#mddc3209469" y="200.760228395"/>
      </g>
     </g>
     <g id="line2d_71">
      <g>
       <use style="stroke:#000000;stroke-width:0.5;" x="398.2725" xlink:href="#m5131d078f1" y="200.760228395"/>
      </g>
     </g>
    </g>
    <g id="ytick_30">
     <g id="line2d_72">
      <g>
       <use style="stroke:#000000;stroke-width:0.5;" x="88.0456289063" xlink:href="#mddc3209469" y="196.596675224"/>
      </g>
     </g>
     <g id="line2d_73">
      <g>
       <use style="stroke:#000000;stroke-width:0.5;" x="398.2725" xlink:href="#m5131d078f1" y="196.596675224"/>
      </g>
     </g>
    </g>
    <g id="ytick_31">
     <g id="line2d_74">
      <g>
       <use style="stroke:#000000;stroke-width:0.5;" x="88.0456289063" xlink:href="#mddc3209469" y="168.369951132"/>
      </g>
     </g>
     <g id="line2d_75">
      <g>
       <use style="stroke:#000000;stroke-width:0.5;" x="398.2725" xlink:href="#m5131d078f1" y="168.369951132"/>
      </g>
     </g>
    </g>
    <g id="ytick_32">
     <g id="line2d_76">
      <g>
       <use style="stroke:#000000;stroke-width:0.5;" x="88.0456289063" xlink:href="#mddc3209469" y="154.037025112"/>
      </g>
     </g>
     <g id="line2d_77">
      <g>
       <use style="stroke:#000000;stroke-width:0.5;" x="398.2725" xlink:href="#m5131d078f1" y="154.037025112"/>
      </g>
     </g>
    </g>
    <g id="ytick_33">
     <g id="line2d_78">
      <g>
       <use style="stroke:#000000;stroke-width:0.5;" x="88.0456289063" xlink:href="#mddc3209469" y="143.867652263"/>
      </g>
     </g>
     <g id="line2d_79">
      <g>
       <use style="stroke:#000000;stroke-width:0.5;" x="398.2725" xlink:href="#m5131d078f1" y="143.867652263"/>
      </g>
     </g>
    </g>
    <g id="ytick_34">
     <g id="line2d_80">
      <g>
       <use style="stroke:#000000;stroke-width:0.5;" x="88.0456289063" xlink:href="#mddc3209469" y="135.979673868"/>
      </g>
     </g>
     <g id="line2d_81">
      <g>
       <use style="stroke:#000000;stroke-width:0.5;" x="398.2725" xlink:href="#m5131d078f1" y="135.979673868"/>
      </g>
     </g>
    </g>
    <g id="ytick_35">
     <g id="line2d_82">
      <g>
       <use style="stroke:#000000;stroke-width:0.5;" x="88.0456289063" xlink:href="#mddc3209469" y="129.534726244"/>
      </g>
     </g>
     <g id="line2d_83">
      <g>
       <use style="stroke:#000000;stroke-width:0.5;" x="398.2725" xlink:href="#m5131d078f1" y="129.534726244"/>
      </g>
     </g>
    </g>
    <g id="ytick_36">
     <g id="line2d_84">
      <g>
       <use style="stroke:#000000;stroke-width:0.5;" x="88.0456289063" xlink:href="#mddc3209469" y="124.08560067"/>
      </g>
     </g>
     <g id="line2d_85">
      <g>
       <use style="stroke:#000000;stroke-width:0.5;" x="398.2725" xlink:href="#m5131d078f1" y="124.08560067"/>
      </g>
     </g>
    </g>
    <g id="ytick_37">
     <g id="line2d_86">
      <g>
       <use style="stroke:#000000;stroke-width:0.5;" x="88.0456289063" xlink:href="#mddc3209469" y="119.365353395"/>
      </g>
     </g>
     <g id="line2d_87">
      <g>
       <use style="stroke:#000000;stroke-width:0.5;" x="398.2725" xlink:href="#m5131d078f1" y="119.365353395"/>
      </g>
     </g>
    </g>
    <g id="ytick_38">
     <g id="line2d_88">
      <g>
       <use style="stroke:#000000;stroke-width:0.5;" x="88.0456289063" xlink:href="#mddc3209469" y="115.201800224"/>
      </g>
     </g>
     <g id="line2d_89">
      <g>
       <use style="stroke:#000000;stroke-width:0.5;" x="398.2725" xlink:href="#m5131d078f1" y="115.201800224"/>
      </g>
     </g>
    </g>
    <g id="ytick_39">
     <g id="line2d_90">
      <g>
       <use style="stroke:#000000;stroke-width:0.5;" x="88.0456289063" xlink:href="#mddc3209469" y="86.9750761317"/>
      </g>
     </g>
     <g id="line2d_91">
      <g>
       <use style="stroke:#000000;stroke-width:0.5;" x="398.2725" xlink:href="#m5131d078f1" y="86.9750761317"/>
      </g>
     </g>
    </g>
    <g id="ytick_40">
     <g id="line2d_92">
      <g>
       <use style="stroke:#000000;stroke-width:0.5;" x="88.0456289063" xlink:href="#mddc3209469" y="72.6421501122"/>
      </g>
     </g>
     <g id="line2d_93">
      <g>
       <use style="stroke:#000000;stroke-width:0.5;" x="398.2725" xlink:href="#m5131d078f1" y="72.6421501122"/>
      </g>
     </g>
    </g>
    <g id="ytick_41">
     <g id="line2d_94">
      <g>
       <use style="stroke:#000000;stroke-width:0.5;" x="88.0456289063" xlink:href="#mddc3209469" y="62.4727772634"/>
      </g>
     </g>
     <g id="line2d_95">
      <g>
       <use style="stroke:#000000;stroke-width:0.5;" x="398.2725" xlink:href="#m5131d078f1" y="62.4727772634"/>
      </g>
     </g>
    </g>
    <g id="ytick_42">
     <g id="line2d_96">
      <g>
       <use style="stroke:#000000;stroke-width:0.5;" x="88.0456289063" xlink:href="#mddc3209469" y="54.5847988683"/>
      </g>
     </g>
     <g id="line2d_97">
      <g>
       <use style="stroke:#000000;stroke-width:0.5;" x="398.2725" xlink:href="#m5131d078f1" y="54.5847988683"/>
      </g>
     </g>
    </g>
    <g id="ytick_43">
     <g id="line2d_98">
      <g>
       <use style="stroke:#000000;stroke-width:0.5;" x="88.0456289063" xlink:href="#mddc3209469" y="48.1398512439"/>
      </g>
     </g>
     <g id="line2d_99">
      <g>
       <use style="stroke:#000000;stroke-width:0.5;" x="398.2725" xlink:href="#m5131d078f1" y="48.1398512439"/>
      </g>
     </g>
    </g>
    <g id="ytick_44">
     <g id="line2d_100">
      <g>
       <use style="stroke:#000000;stroke-width:0.5;" x="88.0456289063" xlink:href="#mddc3209469" y="42.6907256703"/>
      </g>
     </g>
     <g id="line2d_101">
      <g>
       <use style="stroke:#000000;stroke-width:0.5;" x="398.2725" xlink:href="#m5131d078f1" y="42.6907256703"/>
      </g>
     </g>
    </g>
    <g id="ytick_45">
     <g id="line2d_102">
      <g>
       <use style="stroke:#000000;stroke-width:0.5;" x="88.0456289063" xlink:href="#mddc3209469" y="37.970478395"/>
      </g>
     </g>
     <g id="line2d_103">
      <g>
       <use style="stroke:#000000;stroke-width:0.5;" x="398.2725" xlink:href="#m5131d078f1" y="37.970478395"/>
      </g>
     </g>
    </g>
    <g id="ytick_46">
     <g id="line2d_104">
      <g>
       <use style="stroke:#000000;stroke-width:0.5;" x="88.0456289063" xlink:href="#mddc3209469" y="33.8069252245"/>
      </g>
     </g>
     <g id="line2d_105">
      <g>
       <use style="stroke:#000000;stroke-width:0.5;" x="398.2725" xlink:href="#m5131d078f1" y="33.8069252245"/>
      </g>
     </g>
    </g>
    <g id="text_14">
     <!-- $I_D\;\mathrm{[\mu A/\mu m]}$ -->
     <defs>
      <path d="M 2.984375 0 
L 2.984375 3.515625 
Q 6.390625 3.515625 8.59375 4.046875 
Q 10.796875 4.59375 10.796875 6.6875 
L 10.796875 33.984375 
Q 10.796875 36.671875 9.984375 37.859375 
Q 9.1875 39.0625 7.671875 39.328125 
Q 6.15625 39.59375 2.984375 39.59375 
L 2.984375 43.109375 
L 17.484375 44.1875 
L 17.484375 34.421875 
Q 19.484375 38.71875 23.40625 41.453125 
Q 27.34375 44.1875 31.984375 44.1875 
Q 43.5 44.1875 45.515625 34.8125 
Q 47.515625 39.015625 51.359375 41.59375 
Q 55.21875 44.1875 59.8125 44.1875 
Q 64.359375 44.1875 67.453125 42.71875 
Q 70.5625 41.265625 72.125 38.25 
Q 73.6875 35.25 73.6875 30.71875 
L 73.6875 6.6875 
Q 73.6875 4.59375 75.90625 4.046875 
Q 78.125 3.515625 81.5 3.515625 
L 81.5 0 
L 58.59375 0 
L 58.59375 3.515625 
Q 62.015625 3.515625 64.203125 4.046875 
Q 66.40625 4.59375 66.40625 6.6875 
L 66.40625 30.421875 
Q 66.40625 35.453125 64.984375 38.53125 
Q 63.578125 41.609375 59.1875 41.609375 
Q 53.421875 41.609375 49.65625 36.96875 
Q 45.90625 32.328125 45.90625 26.421875 
L 45.90625 6.6875 
Q 45.90625 4.59375 48.09375 4.046875 
Q 50.296875 3.515625 53.71875 3.515625 
L 53.71875 0 
L 30.8125 0 
L 30.8125 3.515625 
Q 34.234375 3.515625 36.421875 4.046875 
Q 38.625 4.59375 38.625 6.6875 
L 38.625 30.421875 
Q 38.625 35.296875 37.203125 38.453125 
Q 35.796875 41.609375 31.390625 41.609375 
Q 25.59375 41.609375 21.84375 36.96875 
Q 18.109375 32.328125 18.109375 26.421875 
L 18.109375 6.6875 
Q 18.109375 4.59375 20.3125 4.046875 
Q 22.515625 3.515625 25.875 3.515625 
L 25.875 0 
z
" id="Cmr10-6d"/>
      <path d="M 2.78125 -18.796875 
Q 2.78125 -18.21875 2.875 -18.015625 
L 17.578125 41.015625 
Q 18.015625 42.4375 19.15625 43.3125 
Q 20.3125 44.1875 21.78125 44.1875 
Q 23.046875 44.1875 23.921875 43.421875 
Q 24.8125 42.671875 24.8125 41.40625 
Q 24.8125 41.109375 24.78125 40.9375 
Q 24.75 40.765625 24.703125 40.578125 
L 18.796875 17.1875 
Q 17.828125 13.03125 17.828125 10.015625 
Q 17.828125 6.296875 19.578125 3.90625 
Q 21.34375 1.515625 24.90625 1.515625 
Q 32.171875 1.515625 37.703125 10.59375 
Q 37.75 10.6875 37.765625 10.734375 
Q 37.796875 10.796875 37.796875 10.890625 
L 45.015625 39.890625 
Q 45.359375 41.21875 46.578125 42.15625 
Q 47.796875 43.109375 49.21875 43.109375 
Q 50.390625 43.109375 51.296875 42.328125 
Q 52.203125 41.546875 52.203125 40.28125 
Q 52.203125 39.703125 52.09375 39.5 
L 44.921875 10.6875 
Q 44.1875 7.859375 44.1875 5.8125 
Q 44.1875 1.515625 47.125 1.515625 
Q 50.25 1.515625 51.828125 5.375 
Q 53.421875 9.234375 54.59375 14.703125 
Q 54.78125 15.28125 55.421875 15.28125 
L 56.59375 15.28125 
Q 56.984375 15.28125 57.25 14.96875 
Q 57.515625 14.65625 57.515625 14.3125 
Q 55.765625 7.328125 53.6875 3.09375 
Q 51.609375 -1.125 46.921875 -1.125 
Q 43.609375 -1.125 41.046875 0.78125 
Q 38.484375 2.6875 37.703125 5.90625 
Q 35.203125 2.78125 31.859375 0.828125 
Q 28.515625 -1.125 24.8125 -1.125 
Q 18.5625 -1.125 14.984375 1.8125 
L 9.90625 -18.40625 
Q 9.625 -19.828125 8.453125 -20.703125 
Q 7.28125 -21.578125 5.8125 -21.578125 
Q 4.59375 -21.578125 3.6875 -20.8125 
Q 2.78125 -20.0625 2.78125 -18.796875 
" id="Cmmi10-b9"/>
      <path d="M 4.890625 0 
Q 3.90625 0 3.90625 1.3125 
Q 3.953125 1.5625 4.09375 2.171875 
Q 4.25 2.78125 4.515625 3.140625 
Q 4.78125 3.515625 5.171875 3.515625 
Q 11.28125 3.515625 13.71875 4.203125 
Q 14.984375 4.640625 15.578125 6.890625 
L 29.296875 61.8125 
Q 29.5 62.796875 29.5 63.1875 
Q 29.5 64.265625 28.328125 64.40625 
Q 26.421875 64.796875 21.09375 64.796875 
Q 20.125 64.796875 20.125 66.109375 
Q 20.171875 66.359375 20.3125 66.96875 
Q 20.453125 67.578125 20.71875 67.9375 
Q 21 68.3125 21.390625 68.3125 
L 57.328125 68.3125 
Q 64.3125 68.3125 69.53125 64.921875 
Q 74.75 61.53125 77.53125 55.78125 
Q 80.328125 50.046875 80.328125 43.109375 
Q 80.328125 35.453125 77.140625 27.78125 
Q 73.96875 20.125 68.25 13.765625 
Q 62.546875 7.421875 55.21875 3.703125 
Q 47.90625 0 40.1875 0 
z
M 23.578125 4.296875 
Q 23.578125 3.515625 27 3.515625 
L 38.625 3.515625 
Q 44.1875 3.515625 49.359375 5.8125 
Q 54.546875 8.109375 58.59375 12.109375 
Q 62.359375 15.875 65.234375 21.96875 
Q 68.109375 28.078125 69.703125 34.71875 
Q 71.296875 41.359375 71.296875 46.921875 
Q 71.296875 50.984375 70.09375 54.25 
Q 68.890625 57.515625 66.71875 59.859375 
Q 64.546875 62.203125 61.28125 63.5 
Q 58.015625 64.796875 53.90625 64.796875 
L 42.921875 64.796875 
Q 40.1875 64.796875 39.296875 64.328125 
Q 38.421875 63.875 37.703125 61.375 
L 24.03125 6.5 
Q 23.578125 5.28125 23.578125 4.296875 
" id="Cmmi10-44"/>
      <path d="M 4.203125 0 
Q 3.21875 0 3.21875 1.3125 
Q 3.609375 3.515625 4.5 3.515625 
Q 10.40625 3.515625 12.5 3.90625 
Q 14.796875 4.4375 15.375 6.890625 
L 29.109375 61.8125 
Q 29.296875 62.796875 29.296875 63.09375 
Q 29.296875 63.71875 28.96875 63.984375 
Q 28.65625 64.265625 27.984375 64.40625 
Q 25.984375 64.796875 20.40625 64.796875 
Q 19.390625 64.796875 19.390625 66.109375 
Q 19.734375 67.390625 19.921875 67.84375 
Q 20.125 68.3125 21.09375 68.3125 
L 49.03125 68.3125 
Q 50 68.3125 50 67 
Q 49.953125 66.75 49.796875 66.15625 
Q 49.65625 65.578125 49.40625 65.1875 
Q 49.171875 64.796875 48.6875 64.796875 
Q 42.828125 64.796875 40.578125 64.40625 
Q 38.375 63.875 37.796875 61.375 
L 24.125 6.5 
Q 23.875 5.28125 23.875 5.171875 
Q 23.875 4.9375 23.953125 4.71875 
Q 24.03125 4.5 24.25 4.328125 
Q 24.46875 4.15625 24.6875 4.078125 
Q 24.90625 4 25.203125 3.90625 
Q 27.09375 3.515625 32.8125 3.515625 
Q 33.796875 3.515625 33.796875 2.203125 
Q 33.453125 0.78125 33.25 0.390625 
Q 33.0625 0 32.078125 0 
z
" id="Cmmi10-49"/>
      <path d="M 3.21875 0 
L 3.21875 3.515625 
Q 12.15625 3.515625 14.203125 9.421875 
L 35.203125 70.515625 
Q 35.5 71.578125 36.8125 71.578125 
L 38.09375 71.578125 
Q 39.40625 71.578125 39.703125 70.515625 
L 61.625 6.6875 
Q 62.546875 4.59375 65.15625 4.046875 
Q 67.78125 3.515625 71.6875 3.515625 
L 71.6875 0 
L 43.796875 0 
L 43.796875 3.515625 
Q 52.09375 3.515625 52.09375 6.203125 
L 52.09375 6.6875 
L 46.6875 22.3125 
L 22.40625 22.3125 
L 17.921875 9.421875 
Q 17.828125 9.078125 17.828125 8.40625 
Q 17.828125 5.90625 20.1875 4.703125 
Q 22.5625 3.515625 25.296875 3.515625 
L 25.296875 0 
z
M 23.578125 25.78125 
L 45.515625 25.78125 
L 34.515625 57.71875 
z
" id="Cmr10-41"/>
      <path d="M 5.609375 -23 
Q 5.609375 -22.703125 5.71875 -22.609375 
L 40.484375 73.78125 
Q 40.671875 74.359375 41.15625 74.671875 
Q 41.65625 75 42.28125 75 
Q 43.171875 75 43.71875 74.453125 
Q 44.28125 73.921875 44.28125 73 
L 44.28125 72.609375 
L 9.515625 -23.78125 
Q 8.9375 -25 7.625 -25 
Q 6.78125 -25 6.1875 -24.40625 
Q 5.609375 -23.828125 5.609375 -23 
" id="Cmmi10-3d"/>
     </defs>
     <g transform="translate(36.5656289062 280.0996875)rotate(-90.0)scale(0.18 -0.18)">
      <use xlink:href="#Cmmi10-49"/>
      <use transform="translate(43.896484375 -17.006249999999994)scale(0.7)" xlink:href="#Cmmi10-44"/>
      <use transform="translate(132.561349609375 0.0)" xlink:href="#Cmr10-5b"/>
      <use transform="translate(160.246896484375 0.0)" xlink:href="#Cmmi10-b9"/>
      <use transform="translate(220.451974609375 0.0)" xlink:href="#Cmr10-41"/>
      <use transform="translate(295.451974609375 0.0)" xlink:href="#Cmmi10-3d"/>
      <use transform="translate(345.451974609375 0.0)" xlink:href="#Cmmi10-b9"/>
      <use transform="translate(405.657052734375 0.0)" xlink:href="#Cmr10-6d"/>
      <use transform="translate(488.957833984375 0.0)" xlink:href="#Cmr10-5d"/>
     </g>
    </g>
   </g>
   <g id="legend_1">
    <g id="patch_7">
     <path d="M 96.045629 429.056875 
L 214.605629 429.056875 
L 214.605629 400.771875 
L 96.045629 400.771875 
z
" style="fill:#ffffff;stroke:#000000;stroke-linejoin:miter;"/>
    </g>
    <g id="line2d_106">
     <path d="M 107.245629 413.729375 
L 129.645629 413.729375 
" style="fill:none;stroke:#0000ff;stroke-linecap:square;"/>
    </g>
    <g id="line2d_107"/>
    <g id="text_15">
     <!-- $V_D=0.5$ -->
     <defs>
      <path d="M 8.40625 5.515625 
Q 8.40625 7.765625 10.0625 9.375 
Q 11.71875 10.984375 13.921875 10.984375 
Q 15.28125 10.984375 16.59375 10.25 
Q 17.921875 9.515625 18.65625 8.203125 
Q 19.390625 6.890625 19.390625 5.515625 
Q 19.390625 3.328125 17.765625 1.65625 
Q 16.15625 0 13.921875 0 
Q 11.71875 0 10.0625 1.65625 
Q 8.40625 3.328125 8.40625 5.515625 
" id="Cmmi10-3a"/>
      <path d="M 8.6875 11.375 
Q 9.71875 8.453125 11.84375 6.046875 
Q 13.96875 3.65625 16.875 2.3125 
Q 19.78125 0.984375 22.90625 0.984375 
Q 30.125 0.984375 32.859375 6.59375 
Q 35.59375 12.203125 35.59375 20.21875 
Q 35.59375 23.6875 35.46875 26.046875 
Q 35.359375 28.421875 34.8125 30.609375 
Q 33.890625 34.125 31.5625 36.765625 
Q 29.25 39.40625 25.875 39.40625 
Q 22.515625 39.40625 20.09375 38.375 
Q 17.671875 37.359375 16.15625 35.984375 
Q 14.65625 34.625 13.484375 33.109375 
Q 12.3125 31.59375 12.015625 31.5 
L 10.890625 31.5 
Q 10.640625 31.5 10.265625 31.8125 
Q 9.90625 32.125 9.90625 32.421875 
L 9.90625 65.828125 
Q 9.90625 66.0625 10.21875 66.328125 
Q 10.546875 66.609375 10.890625 66.609375 
L 11.1875 66.609375 
Q 17.921875 63.375 25.484375 63.375 
Q 32.90625 63.375 39.796875 66.609375 
L 40.09375 66.609375 
Q 40.4375 66.609375 40.71875 66.359375 
Q 41.015625 66.109375 41.015625 65.828125 
L 41.015625 64.890625 
Q 41.015625 64.40625 40.828125 64.40625 
Q 37.40625 59.859375 32.25 57.3125 
Q 27.09375 54.78125 21.578125 54.78125 
Q 17.578125 54.78125 13.375 55.90625 
L 13.375 37.015625 
Q 16.703125 39.703125 19.3125 40.84375 
Q 21.921875 42 25.984375 42 
Q 31.5 42 35.859375 38.8125 
Q 40.234375 35.640625 42.578125 30.53125 
Q 44.921875 25.4375 44.921875 20.125 
Q 44.921875 14.109375 41.96875 8.984375 
Q 39.015625 3.859375 33.9375 0.828125 
Q 28.859375 -2.203125 22.90625 -2.203125 
Q 17.96875 -2.203125 13.84375 0.328125 
Q 9.71875 2.875 7.34375 7.171875 
Q 4.984375 11.46875 4.984375 16.3125 
Q 4.984375 18.5625 6.4375 19.96875 
Q 7.90625 21.390625 10.109375 21.390625 
Q 12.3125 21.390625 13.796875 19.9375 
Q 15.28125 18.5 15.28125 16.3125 
Q 15.28125 14.15625 13.796875 12.671875 
Q 12.3125 11.1875 10.109375 11.1875 
Q 9.765625 11.1875 9.328125 11.25 
Q 8.890625 11.328125 8.6875 11.375 
" id="Cmr10-35"/>
      <path d="M 25 -2.203125 
Q 12.75 -2.203125 8.328125 7.875 
Q 3.90625 17.96875 3.90625 31.890625 
Q 3.90625 40.578125 5.484375 48.234375 
Q 7.078125 55.90625 11.78125 61.25 
Q 16.5 66.609375 25 66.609375 
Q 31.59375 66.609375 35.78125 63.375 
Q 39.984375 60.15625 42.1875 55.046875 
Q 44.390625 49.953125 45.1875 44.109375 
Q 46 38.28125 46 31.890625 
Q 46 23.296875 44.40625 15.796875 
Q 42.828125 8.296875 38.1875 3.046875 
Q 33.546875 -2.203125 25 -2.203125 
M 25 0.390625 
Q 30.5625 0.390625 33.296875 6.09375 
Q 36.03125 11.8125 36.671875 18.75 
Q 37.3125 25.6875 37.3125 33.5 
Q 37.3125 41.015625 36.671875 47.359375 
Q 36.03125 53.71875 33.3125 58.859375 
Q 30.609375 64.015625 25 64.015625 
Q 19.34375 64.015625 16.609375 58.828125 
Q 13.875 53.65625 13.234375 47.328125 
Q 12.59375 41.015625 12.59375 33.5 
Q 12.59375 27.9375 12.859375 23 
Q 13.140625 18.0625 14.3125 12.8125 
Q 15.484375 7.5625 18.09375 3.96875 
Q 20.703125 0.390625 25 0.390625 
" id="Cmr10-30"/>
      <path d="M 7.515625 13.28125 
Q 6.6875 13.28125 6.140625 13.90625 
Q 5.609375 14.546875 5.609375 15.28125 
Q 5.609375 16.109375 6.140625 16.6875 
Q 6.6875 17.28125 7.515625 17.28125 
L 70.3125 17.28125 
Q 71.046875 17.28125 71.578125 16.6875 
Q 72.125 16.109375 72.125 15.28125 
Q 72.125 14.546875 71.578125 13.90625 
Q 71.046875 13.28125 70.3125 13.28125 
z
M 7.515625 32.71875 
Q 6.6875 32.71875 6.140625 33.296875 
Q 5.609375 33.890625 5.609375 34.71875 
Q 5.609375 35.453125 6.140625 36.078125 
Q 6.6875 36.71875 7.515625 36.71875 
L 70.3125 36.71875 
Q 71.046875 36.71875 71.578125 36.078125 
Q 72.125 35.453125 72.125 34.71875 
Q 72.125 33.890625 71.578125 33.296875 
Q 71.046875 32.71875 70.3125 32.71875 
z
" id="Cmr10-3d"/>
     </defs>
     <g transform="translate(147.245628906 419.329375)scale(0.16 -0.16)">
      <use transform="translate(0.0 0.6875)" xlink:href="#Cmmi10-56"/>
      <use transform="translate(58.30078125 -16.318749999999994)scale(0.7)" xlink:href="#Cmmi10-44"/>
      <use transform="translate(140.137109375 0.6875)" xlink:href="#Cmr10-3d"/>
      <use transform="translate(235.38125 0.6875)" xlink:href="#Cmr10-30"/>
      <use transform="translate(285.38125 0.6875)" xlink:href="#Cmmi10-3a"/>
      <use transform="translate(330.625390625 0.6875)" xlink:href="#Cmr10-35"/>
     </g>
    </g>
   </g>
  </g>
  <g id="axes_2">
   <g id="patch_8">
    <path d="M 116.64 156.24 
L 203.04 156.24 
L 203.04 55.44 
L 116.64 55.44 
z
" style="fill:#ffffff;"/>
   </g>
   <g id="line2d_108">
    <path clip-path="url(#p8e8f3cabe8)" d="M 116.64 156.236056 
L 135.512946 156.112223 
L 141.746212 155.86115 
L 145.901723 155.484093 
L 149.191503 154.967154 
L 151.961844 154.307631 
L 154.385892 153.505618 
L 156.636794 152.527232 
L 158.714549 151.38854 
L 160.792305 149.992732 
L 162.87006 148.312984 
L 164.947816 146.327108 
L 167.025571 144.018664 
L 169.103327 141.377855 
L 171.354228 138.139231 
L 173.60513 134.514737 
L 176.029178 130.199707 
L 178.799519 124.78676 
L 181.743006 118.538784 
L 185.205932 110.639883 
L 189.188297 100.978576 
L 194.036393 88.608041 
L 200.269659 72.05048 
L 203.04 64.533309 
L 203.04 64.533309 
" style="fill:none;stroke:#0000ff;stroke-linecap:square;"/>
   </g>
   <g id="patch_9">
    <path d="M 116.64 156.24 
L 116.64 55.44 
" style="fill:none;stroke:#000000;stroke-linecap:square;stroke-linejoin:miter;"/>
   </g>
   <g id="patch_10">
    <path d="M 203.04 156.24 
L 203.04 55.44 
" style="fill:none;stroke:#000000;stroke-linecap:square;stroke-linejoin:miter;"/>
   </g>
   <g id="patch_11">
    <path d="M 116.64 55.44 
L 203.04 55.44 
" style="fill:none;stroke:#000000;stroke-linecap:square;stroke-linejoin:miter;"/>
   </g>
   <g id="patch_12">
    <path d="M 116.64 156.24 
L 203.04 156.24 
" style="fill:none;stroke:#000000;stroke-linecap:square;stroke-linejoin:miter;"/>
   </g>
   <g id="matplotlib.axis_3">
    <g id="xtick_7">
     <g id="line2d_109">
      <g>
       <use style="stroke:#000000;stroke-width:0.5;" x="116.64" xlink:href="#m8f269ef1ed" y="156.24"/>
      </g>
     </g>
     <g id="line2d_110">
      <g>
       <use style="stroke:#000000;stroke-width:0.5;" x="116.64" xlink:href="#m39fc80380d" y="55.44"/>
      </g>
     </g>
     <g id="text_16">
      <!-- 0.0 -->
      <g transform="translate(102.3271875 173.9171875)scale(0.18 -0.18)">
       <use xlink:href="#BitstreamVeraSans-Roman-30"/>
       <use x="63.623046875" xlink:href="#BitstreamVeraSans-Roman-2e"/>
       <use x="95.41015625" xlink:href="#BitstreamVeraSans-Roman-30"/>
      </g>
     </g>
    </g>
    <g id="xtick_8">
     <g id="line2d_111">
      <g>
       <use style="stroke:#000000;stroke-width:0.5;" x="203.04" xlink:href="#m8f269ef1ed" y="156.24"/>
      </g>
     </g>
     <g id="line2d_112">
      <g>
       <use style="stroke:#000000;stroke-width:0.5;" x="203.04" xlink:href="#m39fc80380d" y="55.44"/>
      </g>
     </g>
     <g id="text_17">
      <!-- 0.5 -->
      <g transform="translate(188.7271875 173.9171875)scale(0.18 -0.18)">
       <use xlink:href="#BitstreamVeraSans-Roman-30"/>
       <use x="63.623046875" xlink:href="#BitstreamVeraSans-Roman-2e"/>
       <use x="95.41015625" xlink:href="#BitstreamVeraSans-Roman-35"/>
      </g>
     </g>
    </g>
   </g>
   <g id="matplotlib.axis_4">
    <g id="ytick_47">
     <g id="line2d_113">
      <g>
       <use style="stroke:#000000;stroke-width:0.5;" x="203.04" xlink:href="#mc4d79ea7b8" y="136.08"/>
      </g>
     </g>
     <g id="text_18">
      <!-- 100 -->
      <g transform="translate(207.04 141.046875)scale(0.18 -0.18)">
       <use xlink:href="#BitstreamVeraSans-Roman-31"/>
       <use x="63.623046875" xlink:href="#BitstreamVeraSans-Roman-30"/>
       <use x="127.24609375" xlink:href="#BitstreamVeraSans-Roman-30"/>
      </g>
     </g>
    </g>
    <g id="ytick_48">
     <g id="line2d_114">
      <g>
       <use style="stroke:#000000;stroke-width:0.5;" x="203.04" xlink:href="#mc4d79ea7b8" y="115.92"/>
      </g>
     </g>
     <g id="text_19">
      <!-- 200 -->
      <g transform="translate(207.04 120.886875)scale(0.18 -0.18)">
       <use xlink:href="#BitstreamVeraSans-Roman-32"/>
       <use x="63.623046875" xlink:href="#BitstreamVeraSans-Roman-30"/>
       <use x="127.24609375" xlink:href="#BitstreamVeraSans-Roman-30"/>
      </g>
     </g>
    </g>
    <g id="ytick_49">
     <g id="line2d_115">
      <g>
       <use style="stroke:#000000;stroke-width:0.5;" x="203.04" xlink:href="#mc4d79ea7b8" y="95.76"/>
      </g>
     </g>
     <g id="text_20">
      <!-- 300 -->
      <g transform="translate(207.04 100.726875)scale(0.18 -0.18)">
       <use xlink:href="#BitstreamVeraSans-Roman-33"/>
       <use x="63.623046875" xlink:href="#BitstreamVeraSans-Roman-30"/>
       <use x="127.24609375" xlink:href="#BitstreamVeraSans-Roman-30"/>
      </g>
     </g>
    </g>
    <g id="ytick_50">
     <g id="line2d_116">
      <g>
       <use style="stroke:#000000;stroke-width:0.5;" x="203.04" xlink:href="#mc4d79ea7b8" y="75.6"/>
      </g>
     </g>
     <g id="text_21">
      <!-- 400 -->
      <g transform="translate(207.04 80.566875)scale(0.18 -0.18)">
       <use xlink:href="#BitstreamVeraSans-Roman-34"/>
       <use x="63.623046875" xlink:href="#BitstreamVeraSans-Roman-30"/>
       <use x="127.24609375" xlink:href="#BitstreamVeraSans-Roman-30"/>
      </g>
     </g>
    </g>
   </g>
   <g id="text_22">
    <!-- $\mathrm{Lin}\;I_D-V_G$ -->
    <defs>
     <path d="M 3.078125 0 
L 3.078125 3.515625 
Q 13.375 3.515625 13.375 6.6875 
L 13.375 61.625 
Q 13.375 64.796875 3.078125 64.796875 
L 3.078125 68.3125 
L 35.5 68.3125 
L 35.5 64.796875 
Q 22.703125 64.796875 22.703125 61.625 
L 22.703125 6.6875 
Q 22.703125 4.546875 23.921875 4.03125 
Q 25.140625 3.515625 27.78125 3.515625 
L 35.5 3.515625 
Q 42.96875 3.515625 47.015625 6.25 
Q 51.078125 8.984375 52.75 13.6875 
Q 54.4375 18.40625 55.328125 26.21875 
L 58.203125 26.21875 
L 55.421875 0 
z
" id="Cmr10-4c"/>
     <path d="M 10.203125 23 
Q 9.375 23 8.828125 23.625 
Q 8.296875 24.265625 8.296875 25 
Q 8.296875 25.734375 8.828125 26.359375 
Q 9.375 27 10.203125 27 
L 67.578125 27 
Q 68.359375 27 68.875 26.359375 
Q 69.390625 25.734375 69.390625 25 
Q 69.390625 24.265625 68.875 23.625 
Q 68.359375 23 67.578125 23 
z
" id="Cmsy10-a1"/>
     <path d="M 3.078125 0 
L 3.078125 3.515625 
Q 6.5 3.515625 8.6875 4.046875 
Q 10.890625 4.59375 10.890625 6.6875 
L 10.890625 33.984375 
Q 10.890625 37.84375 9.390625 38.71875 
Q 7.90625 39.59375 3.515625 39.59375 
L 3.515625 43.109375 
L 17.921875 44.1875 
L 17.921875 6.6875 
Q 17.921875 4.59375 19.828125 4.046875 
Q 21.734375 3.515625 24.90625 3.515625 
L 24.90625 0 
z
M 7.328125 61.375 
Q 7.328125 63.578125 8.984375 65.234375 
Q 10.640625 66.890625 12.796875 66.890625 
Q 14.203125 66.890625 15.515625 66.15625 
Q 16.84375 65.4375 17.578125 64.109375 
Q 18.3125 62.796875 18.3125 61.375 
Q 18.3125 59.234375 16.640625 57.5625 
Q 14.984375 55.90625 12.796875 55.90625 
Q 10.640625 55.90625 8.984375 57.5625 
Q 7.328125 59.234375 7.328125 61.375 
" id="Cmr10-69"/>
     <path d="M 2.984375 0 
L 2.984375 3.515625 
Q 6.390625 3.515625 8.59375 4.046875 
Q 10.796875 4.59375 10.796875 6.6875 
L 10.796875 33.984375 
Q 10.796875 36.671875 9.984375 37.859375 
Q 9.1875 39.0625 7.671875 39.328125 
Q 6.15625 39.59375 2.984375 39.59375 
L 2.984375 43.109375 
L 17.484375 44.1875 
L 17.484375 34.421875 
Q 19.484375 38.71875 23.40625 41.453125 
Q 27.34375 44.1875 31.984375 44.1875 
Q 38.921875 44.1875 42.40625 40.859375 
Q 45.90625 37.546875 45.90625 30.71875 
L 45.90625 6.6875 
Q 45.90625 4.59375 48.09375 4.046875 
Q 50.296875 3.515625 53.71875 3.515625 
L 53.71875 0 
L 30.8125 0 
L 30.8125 3.515625 
Q 34.234375 3.515625 36.421875 4.046875 
Q 38.625 4.59375 38.625 6.6875 
L 38.625 30.421875 
Q 38.625 35.296875 37.203125 38.453125 
Q 35.796875 41.609375 31.390625 41.609375 
Q 25.59375 41.609375 21.84375 36.96875 
Q 18.109375 32.328125 18.109375 26.421875 
L 18.109375 6.6875 
Q 18.109375 4.59375 20.3125 4.046875 
Q 22.515625 3.515625 25.875 3.515625 
L 25.875 0 
z
" id="Cmr10-6e"/>
    </defs>
    <g transform="translate(104.652 50.44)scale(0.21599999999999997 -0.21599999999999997)">
     <use transform="translate(0.0 0.6875)" xlink:href="#Cmr10-4c"/>
     <use transform="translate(62.5 0.6875)" xlink:href="#Cmr10-69"/>
     <use transform="translate(90.185546875 0.6875)" xlink:href="#Cmr10-6e"/>
     <use transform="translate(170.090255859375 0.6875)" xlink:href="#Cmmi10-49"/>
     <use transform="translate(213.986740234375 -16.318749999999994)scale(0.7)" xlink:href="#Cmmi10-44"/>
     <use transform="translate(295.823068359375 0.6875)" xlink:href="#Cmsy10-a1"/>
     <use transform="translate(391.067208984375 0.6875)" xlink:href="#Cmmi10-56"/>
     <use transform="translate(449.367990234375 -16.318749999999994)scale(0.7)" xlink:href="#Cmmi10-47"/>
    </g>
   </g>
  </g>
  <g id="axes_3">
   <g id="patch_13">
    <path d="M 267.84 378 
L 375.84 378 
L 375.84 226.8 
L 267.84 226.8 
z
" style="fill:#ffffff;"/>
   </g>
   <g id="line2d_117">
    <path clip-path="url(#p193fd63ed3)" d="M 267.84 378 
L 375.84 377.994084 
L 375.84 377.994084 
" style="fill:none;stroke:#0000ff;stroke-linecap:square;"/>
   </g>
   <g id="line2d_118">
    <path clip-path="url(#p193fd63ed3)" d="M 267.84 378 
L 300.088497 377.97406 
L 375.84 377.970294 
L 375.84 377.970294 
" style="fill:none;stroke:#008000;stroke-linecap:square;"/>
   </g>
   <g id="line2d_119">
    <path clip-path="url(#p193fd63ed3)" d="M 267.84 378 
L 279.094509 377.894125 
L 332.553427 377.865274 
L 375.84 377.855866 
L 375.84 377.855866 
" style="fill:none;stroke:#ff0000;stroke-linecap:square;"/>
   </g>
   <g id="line2d_120">
    <path clip-path="url(#p193fd63ed3)" d="M 267.84 378 
L 273.683687 377.656333 
L 280.825972 377.513378 
L 299.439198 377.43162 
L 375.84 377.347789 
L 375.84 377.347789 
" style="fill:none;stroke:#00bfbf;stroke-linecap:square;"/>
   </g>
   <g id="line2d_121">
    <path clip-path="url(#p193fd63ed3)" d="M 267.84 378 
L 271.735792 377.098872 
L 274.765852 376.631981 
L 278.661643 376.273931 
L 284.288898 376.008079 
L 294.028377 375.807598 
L 315.45523 375.639983 
L 375.84 375.410372 
L 375.84 375.410372 
" style="fill:none;stroke:#bf00bf;stroke-linecap:square;"/>
   </g>
   <g id="line2d_122">
    <path clip-path="url(#p193fd63ed3)" d="M 267.84 378 
L 271.302926 375.812438 
L 273.683687 374.603209 
L 276.064449 373.666749 
L 278.661643 372.905051 
L 281.691703 372.268154 
L 285.371062 371.736893 
L 290.132585 371.286396 
L 296.842004 370.894286 
L 307.014349 370.548274 
L 324.112545 370.217467 
L 359.174669 369.801989 
L 375.84 369.639297 
L 375.84 369.639297 
" style="fill:none;stroke:#bfbf00;stroke-linecap:square;"/>
   </g>
   <g id="line2d_123">
    <path clip-path="url(#p193fd63ed3)" d="M 267.84 378 
L 271.302926 373.432708 
L 273.467255 370.952261 
L 275.41515 369.038363 
L 277.363046 367.420376 
L 279.310942 366.068316 
L 281.475271 364.83104 
L 283.856032 363.731914 
L 286.453226 362.777097 
L 289.483287 361.90508 
L 292.946212 361.139486 
L 297.27487 360.421604 
L 302.685691 359.768443 
L 309.611543 359.174258 
L 318.918156 358.617497 
L 332.120561 358.070948 
L 352.248818 357.483018 
L 375.84 356.947935 
L 375.84 356.947935 
" style="fill:none;stroke:#000000;stroke-linecap:square;"/>
   </g>
   <g id="line2d_124">
    <path clip-path="url(#p193fd63ed3)" d="M 267.84 378 
L 271.519359 369.599601 
L 273.683687 365.179593 
L 275.631583 361.649274 
L 277.579479 358.556812 
L 279.527375 355.880323 
L 281.475271 353.579855 
L 283.423166 351.608594 
L 285.587495 349.747616 
L 287.751824 348.176658 
L 290.132585 346.723211 
L 292.72978 345.402377 
L 295.543407 344.218339 
L 298.7899 343.099567 
L 302.469259 342.074644 
L 306.797916 341.112388 
L 311.775872 340.239085 
L 317.835992 339.409225 
L 325.194709 338.631385 
L 334.501323 337.877183 
L 346.837996 337.113825 
L 363.503327 336.319447 
L 375.84 335.830138 
L 375.84 335.830138 
" style="fill:none;stroke:#0000ff;stroke-linecap:square;"/>
   </g>
   <g id="line2d_125">
    <path clip-path="url(#p193fd63ed3)" d="M 267.84 378 
L 271.735792 364.413338 
L 274.116553 356.93091 
L 276.280882 350.871905 
L 278.228778 346.051687 
L 280.176673 341.809722 
L 282.124569 338.10136 
L 284.072465 334.871099 
L 286.020361 332.060817 
L 287.968257 329.614693 
L 290.132585 327.262091 
L 292.296914 325.234916 
L 294.677675 323.318728 
L 297.27487 321.537649 
L 299.872064 320.020357 
L 302.902124 318.519266 
L 306.148617 317.167886 
L 309.827976 315.888331 
L 313.9402 314.703155 
L 318.701723 313.575396 
L 324.112545 312.530256 
L 330.389098 311.546381 
L 337.964248 310.589649 
L 347.270862 309.649583 
L 358.741804 308.724055 
L 373.459238 307.770674 
L 375.84 307.633608 
L 375.84 307.633608 
" style="fill:none;stroke:#008000;stroke-linecap:square;"/>
   </g>
   <g id="line2d_126">
    <path clip-path="url(#p193fd63ed3)" d="M 267.84 378 
L 271.735792 358.986842 
L 274.116553 348.411989 
L 276.280882 339.760241 
L 278.228778 332.806994 
L 280.176673 326.628391 
L 282.124569 321.176565 
L 284.072465 316.386376 
L 286.020361 312.186137 
L 287.968257 308.504537 
L 289.916152 305.27464 
L 291.864048 302.435851 
L 294.028377 299.675426 
L 296.192705 297.268393 
L 298.573467 294.964893 
L 300.954228 292.964371 
L 303.551423 291.070004 
L 306.36505 289.298722 
L 309.39511 287.659144 
L 312.641603 286.153207 
L 316.320962 284.698675 
L 320.433186 283.324675 
L 324.978277 282.04762 
L 330.172665 280.827159 
L 336.016353 279.685048 
L 342.942204 278.566144 
L 350.95022 277.502497 
L 360.689699 276.442745 
L 372.377074 275.401963 
L 375.84 275.129105 
L 375.84 275.129105 
" style="fill:none;stroke:#ff0000;stroke-linecap:square;"/>
   </g>
   <g id="line2d_127">
    <path clip-path="url(#p193fd63ed3)" d="M 267.84 378 
L 271.952224 351.763624 
L 274.332986 337.960494 
L 276.497315 326.638742 
L 278.44521 317.509571 
L 280.393106 309.36821 
L 282.341002 302.157302 
L 284.288898 295.797636 
L 286.236794 290.201063 
L 288.184689 285.279015 
L 290.132585 280.947595 
L 292.080481 277.130206 
L 294.028377 273.758595 
L 296.192705 270.462663 
L 298.357034 267.572688 
L 300.521363 265.028782 
L 302.902124 262.570174 
L 305.499319 260.230481 
L 308.096513 258.190275 
L 310.91014 256.261855 
L 313.9402 254.457337 
L 317.186693 252.782169 
L 320.866052 251.147111 
L 324.761844 249.662627 
L 329.090501 248.251315 
L 334.068457 246.873241 
L 339.695711 245.560708 
L 345.972265 244.331549 
L 353.330982 243.127241 
L 361.771864 241.977637 
L 371.727776 240.850565 
L 375.84 240.439964 
L 375.84 240.439964 
" style="fill:none;stroke:#00bfbf;stroke-linecap:square;"/>
   </g>
   <g id="patch_14">
    <path d="M 267.84 378 
L 267.84 226.8 
" style="fill:none;stroke:#000000;stroke-linecap:square;stroke-linejoin:miter;"/>
   </g>
   <g id="patch_15">
    <path d="M 375.84 378 
L 375.84 226.8 
" style="fill:none;stroke:#000000;stroke-linecap:square;stroke-linejoin:miter;"/>
   </g>
   <g id="patch_16">
    <path d="M 267.84 226.8 
L 375.84 226.8 
" style="fill:none;stroke:#000000;stroke-linecap:square;stroke-linejoin:miter;"/>
   </g>
   <g id="patch_17">
    <path d="M 267.84 378 
L 375.84 378 
" style="fill:none;stroke:#000000;stroke-linecap:square;stroke-linejoin:miter;"/>
   </g>
   <g id="matplotlib.axis_5">
    <g id="xtick_9">
     <g id="line2d_128">
      <g>
       <use style="stroke:#000000;stroke-width:0.5;" x="267.84" xlink:href="#m8f269ef1ed" y="378.0"/>
      </g>
     </g>
     <g id="line2d_129">
      <g>
       <use style="stroke:#000000;stroke-width:0.5;" x="267.84" xlink:href="#m39fc80380d" y="226.8"/>
      </g>
     </g>
     <g id="text_23">
      <!-- 0.0 -->
      <g transform="translate(253.5271875 395.6771875)scale(0.18 -0.18)">
       <use xlink:href="#BitstreamVeraSans-Roman-30"/>
       <use x="63.623046875" xlink:href="#BitstreamVeraSans-Roman-2e"/>
       <use x="95.41015625" xlink:href="#BitstreamVeraSans-Roman-30"/>
      </g>
     </g>
    </g>
    <g id="xtick_10">
     <g id="line2d_130">
      <g>
       <use style="stroke:#000000;stroke-width:0.5;" x="375.84" xlink:href="#m8f269ef1ed" y="378.0"/>
      </g>
     </g>
     <g id="line2d_131">
      <g>
       <use style="stroke:#000000;stroke-width:0.5;" x="375.84" xlink:href="#m39fc80380d" y="226.8"/>
      </g>
     </g>
     <g id="text_24">
      <!-- 0.5 -->
      <g transform="translate(361.5271875 395.6771875)scale(0.18 -0.18)">
       <use xlink:href="#BitstreamVeraSans-Roman-30"/>
       <use x="63.623046875" xlink:href="#BitstreamVeraSans-Roman-2e"/>
       <use x="95.41015625" xlink:href="#BitstreamVeraSans-Roman-35"/>
      </g>
     </g>
    </g>
   </g>
   <g id="matplotlib.axis_6">
    <g id="ytick_51">
     <g id="line2d_132">
      <g>
       <use style="stroke:#000000;stroke-width:0.5;" x="267.84" xlink:href="#m9ae9af8a07" y="347.76"/>
      </g>
     </g>
     <g id="line2d_133">
      <g>
       <use style="stroke:#000000;stroke-width:0.5;" x="375.84" xlink:href="#mc4d79ea7b8" y="347.76"/>
      </g>
     </g>
     <g id="text_25">
      <!-- 100 -->
      <g transform="translate(229.4825 352.726875)scale(0.18 -0.18)">
       <use xlink:href="#BitstreamVeraSans-Roman-31"/>
       <use x="63.623046875" xlink:href="#BitstreamVeraSans-Roman-30"/>
       <use x="127.24609375" xlink:href="#BitstreamVeraSans-Roman-30"/>
      </g>
     </g>
    </g>
    <g id="ytick_52">
     <g id="line2d_134">
      <g>
       <use style="stroke:#000000;stroke-width:0.5;" x="267.84" xlink:href="#m9ae9af8a07" y="317.52"/>
      </g>
     </g>
     <g id="line2d_135">
      <g>
       <use style="stroke:#000000;stroke-width:0.5;" x="375.84" xlink:href="#mc4d79ea7b8" y="317.52"/>
      </g>
     </g>
     <g id="text_26">
      <!-- 200 -->
      <g transform="translate(229.4825 322.486875)scale(0.18 -0.18)">
       <use xlink:href="#BitstreamVeraSans-Roman-32"/>
       <use x="63.623046875" xlink:href="#BitstreamVeraSans-Roman-30"/>
       <use x="127.24609375" xlink:href="#BitstreamVeraSans-Roman-30"/>
      </g>
     </g>
    </g>
    <g id="ytick_53">
     <g id="line2d_136">
      <g>
       <use style="stroke:#000000;stroke-width:0.5;" x="267.84" xlink:href="#m9ae9af8a07" y="287.28"/>
      </g>
     </g>
     <g id="line2d_137">
      <g>
       <use style="stroke:#000000;stroke-width:0.5;" x="375.84" xlink:href="#mc4d79ea7b8" y="287.28"/>
      </g>
     </g>
     <g id="text_27">
      <!-- 300 -->
      <g transform="translate(229.4825 292.246875)scale(0.18 -0.18)">
       <use xlink:href="#BitstreamVeraSans-Roman-33"/>
       <use x="63.623046875" xlink:href="#BitstreamVeraSans-Roman-30"/>
       <use x="127.24609375" xlink:href="#BitstreamVeraSans-Roman-30"/>
      </g>
     </g>
    </g>
    <g id="ytick_54">
     <g id="line2d_138">
      <g>
       <use style="stroke:#000000;stroke-width:0.5;" x="267.84" xlink:href="#m9ae9af8a07" y="257.04"/>
      </g>
     </g>
     <g id="line2d_139">
      <g>
       <use style="stroke:#000000;stroke-width:0.5;" x="375.84" xlink:href="#mc4d79ea7b8" y="257.04"/>
      </g>
     </g>
     <g id="text_28">
      <!-- 400 -->
      <g transform="translate(229.4825 262.006875)scale(0.18 -0.18)">
       <use xlink:href="#BitstreamVeraSans-Roman-34"/>
       <use x="63.623046875" xlink:href="#BitstreamVeraSans-Roman-30"/>
       <use x="127.24609375" xlink:href="#BitstreamVeraSans-Roman-30"/>
      </g>
     </g>
    </g>
   </g>
   <g id="text_29">
    <!-- $\mathrm{Lin}\;I_D-V_D$ -->
    <g transform="translate(266.328 221.8)scale(0.21599999999999997 -0.21599999999999997)">
     <use transform="translate(0.0 0.6875)" xlink:href="#Cmr10-4c"/>
     <use transform="translate(62.5 0.6875)" xlink:href="#Cmr10-69"/>
     <use transform="translate(90.185546875 0.6875)" xlink:href="#Cmr10-6e"/>
     <use transform="translate(170.090255859375 0.6875)" xlink:href="#Cmmi10-49"/>
     <use transform="translate(213.986740234375 -16.318749999999994)scale(0.7)" xlink:href="#Cmmi10-44"/>
     <use transform="translate(295.823068359375 0.6875)" xlink:href="#Cmsy10-a1"/>
     <use transform="translate(391.067208984375 0.6875)" xlink:href="#Cmmi10-56"/>
     <use transform="translate(449.367990234375 -16.318749999999994)scale(0.7)" xlink:href="#Cmmi10-44"/>
    </g>
   </g>
  </g>
 </g>
 <defs>
  <clipPath id="p5c84b3f6b1">
   <rect height="406.974375" width="310.226871094" x="88.0456289063" y="30.0825"/>
  </clipPath>
  <clipPath id="p8e8f3cabe8">
   <rect height="100.8" width="86.4" x="116.64" y="55.44"/>
  </clipPath>
  <clipPath id="p193fd63ed3">
   <rect height="151.2" width="108.0" x="267.84" y="226.8"/>
  </clipPath>
 </defs>
</svg>
